<?xml version="1.0" standalone="no"?>
<!DOCTYPE svg PUBLIC "-//W3C//DTD SVG 20010904//EN"
 "http://www.w3.org/TR/2001/REC-SVG-20010904/DTD/svg10.dtd">
<svg version="1.0" xmlns="http://www.w3.org/2000/svg"
 width="1920.000000pt" height="1080.000000pt" viewBox="0 0 1920.000000 1080.000000"
 preserveAspectRatio="xMidYMid meet">

<g transform="translate(0.000000,1080.000000) scale(0.100000,-0.100000)"
fill="#000000" stroke="none">
<path d="M4476 10755 c33 -25 64 -51 71 -58 34 -34 53 -58 53 -68 0 -5 30 -24
68 -41 113 -51 127 -59 182 -110 29 -27 66 -58 81 -69 16 -11 29 -26 29 -33 0
-7 39 -32 88 -55 105 -51 132 -70 202 -142 58 -59 107 -92 153 -103 17 -4 25
-11 21 -18 -4 -6 -3 -8 3 -5 5 3 22 -2 37 -12 19 -13 24 -20 14 -24 -11 -4
-11 -6 0 -6 14 -1 96 -63 122 -92 8 -9 40 -30 70 -45 30 -16 60 -33 65 -40 6
-6 32 -26 60 -45 27 -18 65 -47 85 -65 19 -17 52 -37 72 -43 21 -7 45 -22 53
-34 8 -11 18 -18 21 -14 9 9 35 -13 29 -23 -3 -5 10 -18 30 -30 19 -11 45 -34
58 -49 13 -16 35 -32 48 -36 31 -10 219 -143 219 -155 0 -6 7 -10 15 -10 9 0
64 -35 123 -78 59 -43 150 -106 203 -140 102 -66 143 -102 118 -102 -8 -1 -95
-11 -194 -24 -373 -48 -683 -88 -778 -98 -116 -13 -105 -18 -347 126 -85 51
-184 110 -220 130 -36 21 -119 70 -186 109 -132 78 -151 90 -362 214 -121 72
-147 84 -172 78 -17 -4 -35 -15 -41 -26 -19 -36 -28 -125 -19 -195 5 -37 6
-73 2 -79 -4 -5 -7 -121 -7 -257 0 -168 -4 -250 -11 -258 -16 -16 -283 -49
-318 -39 -16 5 -38 14 -50 22 -11 8 -102 52 -201 100 -202 96 -521 251 -980
477 -170 84 -386 190 -480 235 -93 45 -273 133 -400 195 -126 62 -297 145
-380 185 -82 40 -233 113 -335 162 -373 182 -796 386 -838 404 -24 11 -49 16
-54 12 -6 -3 -8 -1 -5 4 4 6 0 14 -9 17 -24 9 -31 7 -14 -4 11 -7 11 -10 2
-10 -23 0 -168 72 -154 77 16 6 -3 33 -23 33 -7 0 -74 30 -149 66 -76 36 -140
63 -143 60 -3 -3 6 -10 21 -16 28 -10 65 -40 49 -40 -4 0 -17 7 -27 15 -48 37
-46 130 -46 -1770 l0 -1785 23 0 c13 0 28 5 33 10 6 6 48 12 95 14 46 2 95 4
109 5 20 1 22 3 10 11 -11 7 -2 10 31 10 37 0 48 -4 51 -18 5 -16 15 -19 76
-17 38 2 75 6 82 10 6 4 36 4 66 0 l54 -6 0 -37 c0 -51 -24 -84 -56 -76 -18 5
-24 2 -24 -11 0 -15 -7 -17 -50 -11 -41 5 -50 4 -50 -8 0 -9 -6 -13 -14 -10
-8 3 -20 -1 -27 -9 -10 -11 -22 -12 -51 -4 -21 5 -38 13 -38 17 0 3 -10 6 -22
6 -14 -1 -22 4 -20 12 1 9 -6 11 -25 6 -16 -4 -30 -7 -33 -6 -41 0 -50 4 -50
20 0 14 -2 15 -10 2 -9 -14 -28 -12 -138 16 l-22 6 0 -379 c0 -281 3 -382 12
-391 14 -14 78 -16 78 -2 0 6 11 10 25 10 17 0 25 6 26 18 0 9 6 -1 13 -23 9
-32 17 -41 39 -43 15 -2 27 -8 27 -13 0 -5 7 -9 15 -9 8 0 15 7 15 15 0 8 9
15 20 15 13 0 20 7 20 20 0 27 50 28 57 1 5 -19 56 -36 74 -25 5 3 7 -1 4 -8
-9 -23 34 -39 123 -45 48 -3 96 -12 107 -19 11 -8 27 -14 37 -14 11 0 18 -8
18 -20 0 -25 35 -40 95 -40 38 0 43 -2 38 -20 -4 -16 0 -20 20 -20 14 0 29 -5
32 -10 5 -7 -23 -9 -87 -6 l-93 5 158 -29 c86 -16 162 -32 167 -35 22 -14 -4
-25 -58 -26 -69 -1 -259 -26 -217 -28 17 -1 41 -8 55 -16 l25 -14 -30 -1 c-22
0 -33 -6 -40 -22 -6 -13 -21 -25 -35 -28 -14 -3 -32 -9 -40 -15 -19 -13 -50
-52 -33 -41 7 4 21 2 30 -3 16 -9 16 -10 -3 -11 -47 0 -340 53 -351 64 -4 3
-1 6 6 6 6 0 15 10 20 23 6 15 24 28 50 37 23 7 40 18 38 24 -2 6 -46 14 -103
17 -54 4 -153 16 -219 28 -66 11 -123 21 -127 21 -5 0 -8 -109 -8 -241 0 -192
3 -239 13 -231 14 12 47 -7 47 -27 0 -6 7 -11 15 -11 8 0 15 -6 15 -14 0 -8 2
-20 5 -28 4 -10 -6 -12 -45 -10 -44 4 -50 2 -50 -16 0 -18 10 -20 128 -26 70
-4 150 -8 177 -11 42 -3 44 -2 15 4 l-35 8 30 3 c17 2 53 4 82 5 29 2 77 5
107 9 46 5 95 0 186 -19 8 -2 47 -4 87 -4 46 -1 76 -6 85 -14 8 -8 35 -14 68
-14 59 1 108 -9 126 -24 6 -5 14 -6 17 -2 4 3 7 1 7 -5 0 -7 11 -9 30 -5 19 3
30 1 30 -6 0 -7 19 -11 49 -11 28 0 53 -4 56 -10 3 -5 20 -10 36 -10 18 0 28
-4 24 -10 -4 -7 3 -9 22 -5 19 5 24 4 15 -3 -10 -6 23 -13 102 -22 71 -8 113
-16 110 -22 -4 -6 5 -8 25 -3 34 7 211 -13 225 -26 22 -20 -174 -37 -639 -55
-163 -6 -222 -2 -915 71 -254 27 -256 27 -240 16 10 -7 11 -11 3 -11 -10 0
-13 -119 -13 -560 l0 -560 228 0 c179 0 232 -3 252 -15 14 -8 40 -22 58 -31
35 -19 44 -56 16 -72 -14 -8 -15 -18 -8 -63 5 -30 8 -60 7 -66 0 -7 3 -13 8
-13 5 0 9 -5 9 -11 0 -24 65 -171 86 -194 12 -14 18 -27 13 -30 -18 -12 -8
-45 19 -59 26 -14 22 -15 -65 -16 -50 0 -103 -4 -116 -9 -31 -12 -32 -24 -48
-307 l-13 -221 -125 -6 c-68 -4 -126 -5 -128 -3 -2 2 1 108 8 235 9 185 8 235
-2 247 -10 12 -31 15 -103 12 l-91 -4 -3 -673 -2 -673 37 6 c21 3 106 12 188
21 83 8 177 19 210 24 64 10 139 20 415 51 96 11 254 28 350 39 96 11 243 27
325 36 83 9 157 18 165 20 70 20 261 35 443 35 116 0 208 -2 206 -4 -2 -3 -61
-12 -129 -20 -69 -9 -172 -23 -230 -31 -58 -8 -202 -27 -320 -40 -118 -14
-267 -32 -330 -40 -63 -9 -252 -31 -420 -50 -168 -19 -352 -41 -410 -49 -58
-8 -132 -17 -165 -20 -33 -3 -91 -11 -130 -16 -38 -6 -99 -14 -135 -18 l-65
-7 -3 -233 c-2 -183 0 -232 10 -230 7 2 15 6 18 10 3 4 55 9 115 12 61 2 124
10 140 16 17 7 46 14 65 17 19 3 40 9 45 13 6 4 35 8 65 7 80 -1 424 25 475
36 17 4 93 12 205 23 207 20 350 20 350 1 0 -5 10 -5 21 -2 15 5 20 3 17 -6
-4 -12 -112 -35 -177 -38 -8 -1 -12 -4 -9 -7 3 -3 170 20 369 51 767 119 638
109 1109 90 69 -3 169 -6 223 -7 54 0 93 -5 85 -9 -14 -9 -22 -10 -393 -69
-137 -22 -272 -44 -300 -49 -60 -12 -247 -42 -445 -71 -80 -11 -181 -28 -225
-36 -44 -8 -98 -16 -120 -19 -22 -2 -84 -13 -138 -24 -56 -12 -111 -18 -129
-14 -19 4 -29 2 -25 -4 4 -6 -6 -9 -23 -8 -17 1 -30 -3 -30 -8 0 -5 -11 -7
-25 -5 -14 3 -28 1 -31 -4 -3 -5 -22 -6 -41 -2 -26 5 -34 4 -29 -5 5 -8 -4
-11 -31 -11 -21 1 -105 -12 -188 -28 -82 -16 -199 -37 -260 -46 -60 -9 -146
-23 -190 -31 -146 -27 -199 -35 -315 -50 -63 -7 -132 -19 -152 -25 l-38 -11 0
-369 c0 -401 -2 -388 52 -359 11 6 30 13 42 14 11 2 57 11 101 19 44 9 107 21
139 27 32 5 66 14 75 19 15 7 113 30 216 50 22 5 56 13 75 19 19 6 49 11 65
11 17 0 36 5 41 10 14 14 48 22 114 27 30 2 62 7 70 10 36 15 151 46 215 58
39 7 95 21 125 30 30 9 80 23 110 31 30 8 66 19 80 24 14 5 52 12 85 15 34 3
65 12 71 21 8 9 31 14 72 14 33 0 72 4 86 10 14 5 65 14 113 20 48 7 111 18
140 26 28 8 73 17 100 19 54 3 103 14 118 25 10 7 128 21 220 25 28 1 68 6 90
12 29 7 47 6 65 -4 14 -7 42 -16 63 -19 34 -6 37 -9 37 -40 0 -26 -4 -34 -17
-34 -21 0 -44 -43 -32 -61 11 -18 -10 -41 -32 -34 -9 3 -20 1 -24 -5 -8 -13
-65 -13 -65 0 0 6 -9 10 -20 10 -11 0 -20 -5 -20 -11 0 -6 -13 -9 -30 -7 -18
2 -34 -3 -39 -10 -10 -17 -21 -17 -33 0 -7 10 -12 8 -25 -10 -12 -17 -25 -22
-59 -22 -24 0 -44 -4 -44 -9 0 -5 -16 -12 -35 -15 -20 -4 -33 -11 -30 -15 6
-10 -29 -21 -68 -21 -27 0 -28 -2 -25 -42 3 -36 0 -41 -19 -43 -16 -1 -23 4
-23 17 0 10 -4 18 -10 18 -5 0 -10 -11 -10 -25 0 -15 -6 -25 -14 -25 -8 0 -16
-6 -19 -12 -2 -8 -24 -13 -55 -14 -86 -2 -88 -3 -101 -30 -9 -20 -17 -25 -36
-22 -13 3 -26 2 -27 -1 -2 -4 -50 -19 -108 -35 -58 -15 -117 -34 -131 -42 -30
-15 -93 -32 -166 -44 -28 -4 -56 -11 -61 -13 -4 -3 -36 -7 -70 -8 -34 -1 -62
-6 -62 -11 0 -4 -10 -8 -23 -8 -13 0 -27 -4 -32 -9 -6 -5 -46 -16 -90 -25 -44
-10 -97 -24 -118 -32 -20 -8 -65 -14 -99 -14 -42 0 -67 -5 -79 -16 -11 -10
-45 -17 -96 -21 -43 -3 -81 -11 -85 -17 -4 -6 -11 -11 -15 -12 -43 -3 -104
-20 -130 -36 -24 -14 -33 -16 -33 -6 0 11 -2 10 -9 -1 -9 -13 -50 -25 -150
-41 -30 -5 -57 -13 -60 -19 -3 -5 -20 -13 -36 -17 -17 -3 -38 -14 -47 -22 -15
-12 -18 -13 -18 -1 0 12 -2 12 -9 1 -5 -8 -20 -15 -35 -15 -14 -1 -26 -6 -26
-10 0 -5 -9 -5 -20 -2 -12 4 -20 2 -20 -5 0 -7 -8 -9 -20 -5 -19 6 -20 2 -20
-64 l0 -71 293 0 293 0 224 60 c376 101 541 145 875 231 409 105 420 108 648
173 106 30 260 73 342 96 83 23 157 46 165 51 15 8 13 10 -27 14 -31 3 -53 13
-53 24 0 32 297 40 740 21 209 -9 653 -16 860 -12 41 0 82 1 90 1 38 0 139
-22 135 -30 -3 -4 3 -6 15 -4 11 2 22 -1 26 -7 4 -6 29 -8 70 -3 101 11 104 6
104 -130 0 -112 0 -114 -27 -133 -16 -11 -25 -24 -21 -28 5 -4 50 -8 102 -10
199 -5 400 -25 443 -45 24 -10 47 -19 52 -19 6 0 14 -6 18 -14 8 -15 171 -39
241 -36 55 3 59 2 65 -18 4 -16 46 -34 73 -31 4 0 10 -4 13 -10 4 -5 32 -11
64 -13 35 -2 59 -8 62 -16 3 -9 -1 -11 -15 -7 -25 8 -25 7 0 -50 14 -34 24
-45 35 -41 8 3 23 9 32 13 12 5 15 2 10 -10 -6 -16 208 -17 3223 -17 2167 0
3230 3 3230 10 0 6 30 72 66 148 37 75 80 166 96 202 34 73 59 125 75 155 6
11 19 40 29 64 10 24 20 38 22 32 2 -6 9 -8 14 -5 7 4 8 2 4 -5 -4 -6 -12 -8
-18 -5 -6 4 -9 1 -6 -7 3 -8 -2 -19 -11 -26 -14 -10 -13 -11 5 -7 19 5 22 0
27 -43 4 -26 7 -153 8 -280 l1 -233 304 0 c238 0 302 3 299 13 -2 6 -11 199
-20 427 -9 228 -23 534 -31 680 -8 146 -21 411 -29 590 -8 179 -19 404 -25
500 -22 377 -31 548 -45 875 -9 187 -20 430 -25 540 -11 234 -35 802 -50 1165
-6 140 -18 386 -28 545 -9 160 -17 389 -17 510 l0 220 33 5 c43 7 42 24 -3 28
-29 3 -35 7 -35 27 0 13 -4 27 -10 30 -18 11 -173 392 -165 405 3 5 27 14 54
21 31 8 51 19 54 30 5 18 -3 18 -46 1 -42 -18 -46 -15 -36 24 6 19 9 50 8 67
-2 18 1 45 6 61 5 19 4 36 -4 47 -14 23 -14 34 1 84 l11 40 18 -40 c10 -22 19
-51 19 -65 0 -14 9 -57 19 -95 11 -39 22 -88 25 -111 9 -74 18 -114 27 -114 5
0 9 8 9 19 0 14 6 17 25 13 14 -2 41 -1 60 2 32 6 35 10 35 41 0 24 5 34 17
37 10 2 18 12 18 23 0 12 6 19 14 17 7 -2 20 6 28 18 8 11 23 20 34 20 10 0
19 7 19 15 0 10 10 15 33 15 25 0 37 7 52 30 11 17 31 33 45 37 14 3 27 9 30
12 3 4 18 12 33 19 15 7 25 17 22 22 -3 6 4 10 17 10 14 1 43 20 73 50 27 28
54 50 58 50 5 0 15 7 23 15 9 8 27 18 42 21 15 3 34 8 42 11 8 4 29 8 45 10
17 3 50 14 75 25 68 32 109 46 154 54 23 3 91 19 151 34 162 42 262 57 277 42
7 -7 22 -12 35 -12 12 0 26 -8 32 -17 15 -30 30 -186 42 -458 6 -143 16 -271
21 -284 8 -23 10 -24 91 -16 45 5 114 9 152 10 39 0 94 7 123 14 29 7 59 11
67 8 18 -8 254 10 323 24 29 6 90 12 135 14 45 2 96 6 112 9 17 4 57 8 90 9
33 2 69 8 80 14 19 10 82 19 210 28 33 3 80 9 105 15 25 5 115 14 201 20 86 5
168 14 182 19 14 6 146 9 309 8 314 -2 309 -1 379 -71 20 -20 47 -58 60 -84
13 -26 43 -67 66 -92 24 -25 43 -48 43 -52 0 -23 58 -56 118 -68 64 -12 327
-10 572 5 47 2 151 7 232 9 142 4 150 6 217 38 53 25 75 42 90 69 12 20 27 42
35 48 8 7 20 37 26 67 6 29 16 56 21 59 5 4 9 15 9 26 0 34 61 86 134 114 63
24 79 26 195 25 69 -1 128 -1 131 0 16 6 59 6 83 -1 l27 -8 0 1060 0 1060 -37
-7 c-21 -3 -60 -12 -87 -20 -57 -16 -166 -19 -166 -4 0 12 -62 1 -75 -14 -5
-6 -35 -11 -65 -11 -30 -1 -111 -11 -180 -22 -69 -12 -168 -24 -220 -28 -52
-3 -138 -13 -190 -20 -84 -13 -186 -24 -345 -40 -233 -24 -470 -50 -855 -95
-47 -6 -152 -17 -235 -25 -82 -8 -186 -20 -230 -25 -44 -5 -208 -23 -365 -40
-157 -16 -323 -34 -370 -40 -47 -5 -175 -19 -285 -30 -110 -11 -234 -25 -276
-30 -43 -5 -99 -7 -126 -3 -54 6 -190 -13 -211 -29 -7 -6 -32 -8 -57 -6 -27 3
-42 2 -39 -4 4 -6 -1 -6 -12 0 -11 5 -31 15 -46 23 -28 12 -28 13 -27 103 2
155 -4 146 124 171 61 12 155 27 210 34 55 8 104 16 110 19 5 3 28 7 50 8 85
3 372 35 402 45 18 6 37 8 43 4 6 -3 92 3 193 15 249 28 250 29 244 51 -3 11
-1 21 4 25 5 3 8 27 6 54 -2 49 -2 50 -32 45 -16 -3 -66 -10 -110 -15 -212
-28 -229 -33 -246 -67 -23 -46 -48 -83 -57 -83 -8 0 -14 36 -15 86 0 26 -4 30
-16 24 -9 -5 -92 -18 -186 -30 -93 -12 -177 -24 -187 -26 -9 -3 -21 -19 -27
-36 -6 -17 -22 -41 -35 -53 l-24 -22 5 54 6 55 -29 -6 c-29 -6 -118 -17 -303
-36 -57 -6 -98 -7 -104 -1 -10 10 0 51 13 51 5 0 7 6 4 14 -6 16 21 45 44 47
9 1 39 1 66 -1 44 -2 48 0 44 17 -4 16 0 20 21 21 41 1 152 19 158 26 10 10
-44 6 -157 -9 -58 -8 -120 -15 -139 -15 l-34 0 6 61 c3 34 10 66 15 71 16 16
278 60 389 65 100 5 101 5 106 31 3 14 3 41 0 58 -3 17 -1 34 3 37 15 8 54
-12 54 -28 0 -14 13 -20 35 -15 6 1 37 4 70 7 33 2 74 8 90 12 41 9 215 7 239
-4 17 -8 18 -5 12 38 -9 58 1 64 81 47 32 -6 74 -11 93 -11 48 1 160 22 160
30 0 4 8 7 18 7 9 0 28 4 42 8 19 5 21 5 10 -3 -13 -9 -13 -11 3 -11 9 0 17 5
17 11 0 6 7 9 15 6 8 -4 17 -2 20 4 9 14 25 1 41 -35 10 -23 13 -26 13 -11 1
11 -3 27 -9 35 -5 9 -5 19 1 27 13 15 70 28 78 17 26 -37 220 -33 296 6 40 20
81 27 71 12 -3 -5 9 -8 27 -7 24 1 36 -4 50 -24 l19 -26 -8 25 c-4 14 -9 30
-11 36 -2 6 2 15 9 21 19 15 78 24 78 13 0 -10 50 -8 145 5 17 2 83 9 148 15
66 6 131 16 145 22 48 19 106 27 120 16 7 -6 29 -8 50 -5 25 5 32 3 22 -3 -24
-15 68 -12 122 4 25 8 50 11 54 8 4 -4 4 -1 -1 7 -7 12 1 13 41 7 27 -4 61 -8
76 -9 15 -1 33 -8 39 -15 7 -6 19 -12 26 -12 10 0 10 5 1 25 -20 44 -2 50 150
52 138 2 218 8 281 19 20 4 31 3 28 -3 -3 -5 15 -10 40 -11 36 -1 43 1 34 11
-8 10 -3 18 20 31 25 14 49 18 113 16 108 -3 136 -3 166 -2 14 0 43 0 65 0 22
0 63 2 92 5 34 3 60 0 78 -9 34 -17 49 -9 34 18 -9 17 -8 24 6 34 21 16 103
26 173 22 l52 -4 0 583 0 583 -7391 0 -7391 0 58 -45z m-4226 -155 c8 -5 11
-10 5 -10 -5 0 -17 5 -25 10 -8 5 -10 10 -5 10 6 0 17 -5 25 -10z m4430 -1142
c19 -12 64 -38 100 -58 36 -20 171 -99 300 -175 401 -235 455 -266 840 -490
206 -120 470 -274 585 -343 116 -68 243 -144 284 -168 40 -24 77 -41 82 -38 5
3 12 -1 15 -10 3 -8 12 -12 20 -9 7 3 16 -2 20 -10 5 -14 90 -69 169 -111 20
-10 24 -15 13 -16 -10 0 -18 -7 -18 -16 0 -11 -22 -3 -87 32 -49 27 -82 40
-74 31 12 -15 11 -17 -10 -17 -18 0 -7 -11 46 -44 122 -77 114 -66 114 -158 0
-44 5 -86 10 -91 8 -8 11 -2 11 18 0 23 3 26 12 17 15 -15 31 -1413 25 -2117
-4 -389 -7 -457 -26 -584 -51 -333 -157 -658 -286 -877 -193 -326 -423 -503
-706 -545 -180 -26 -404 33 -589 156 -83 55 -245 211 -332 320 -250 313 -444
753 -543 1232 -37 179 -58 323 -76 513 -10 119 -6 2367 6 3130 3 157 5 315 5
352 0 47 5 71 16 82 20 21 32 20 74 -6z m11367 -184 c-3 -3 -12 -4 -19 -1 -8
3 -5 6 6 6 11 1 17 -2 13 -5z m-1224 -411 c-7 -2 -19 -2 -25 0 -7 3 -2 5 12 5
14 0 19 -2 13 -5z m-4846 -264 c9 -9 7 -22 -8 -51 l-20 -38 27 -10 c19 -8 51
-6 113 4 47 8 113 16 145 17 54 2 61 0 83 -27 48 -58 63 -83 55 -88 -5 -3 -60
-10 -123 -17 -130 -13 -173 -20 -147 -26 9 -2 19 -11 22 -19 10 -27 -12 -52
-54 -59 -22 -4 -40 -11 -40 -16 0 -15 39 -10 86 12 33 15 54 18 77 13 38 -9
52 -7 93 11 42 20 183 22 195 4 22 -35 13 -39 -127 -55 -56 -6 -60 -8 -56 -29
4 -24 -13 -65 -28 -65 -4 0 -26 18 -47 39 l-38 39 -115 -9 c-63 -5 -123 -6
-132 -3 -14 4 -18 0 -18 -19 0 -24 -27 -87 -37 -87 -13 0 -103 77 -108 93 -5
12 -19 17 -53 19 -175 6 -180 6 -208 -13 l-29 -19 32 0 c17 0 35 -4 38 -10 7
-12 -12 -87 -25 -95 -14 -9 -101 39 -134 74 -32 33 -90 51 -109 32 -6 -6 -23
-11 -37 -11 -31 0 -73 -32 -68 -52 4 -20 -34 -88 -50 -88 -24 0 -64 25 -107
68 -36 36 -151 56 -237 42 -44 -8 -68 -16 -68 -25 0 -7 -6 -16 -12 -18 -7 -3
11 -6 40 -6 64 -1 73 -16 42 -66 -12 -20 -19 -39 -15 -43 11 -12 29 -8 42 8
11 13 12 13 13 -4 0 -17 6 -18 73 -13 90 8 152 15 197 22 19 3 103 10 185 16
83 6 182 17 220 24 39 8 134 16 211 19 78 3 154 10 169 16 15 6 57 12 94 15
36 2 116 9 176 15 61 6 187 13 281 16 l172 4 34 -47 c70 -99 98 -151 92 -167
-3 -9 -10 -13 -15 -10 -5 3 -6 11 -2 17 4 7 -1 6 -10 -2 -11 -9 -31 -12 -57
-8 -22 3 -42 1 -45 -4 -3 -4 -17 -3 -30 3 -20 9 -31 8 -51 -2 -20 -11 -29 -12
-44 -2 -28 17 -33 15 -26 -13 9 -35 -11 -41 -154 -48 -69 -4 -215 -16 -325
-28 -230 -24 -240 -25 -343 -33 -42 -4 -102 -9 -132 -11 -30 -3 -77 -8 -105
-10 -27 -3 -104 -10 -170 -16 -66 -7 -142 -13 -170 -14 -27 -1 -78 -5 -111 -9
-45 -6 -79 -3 -124 8 -55 14 -65 14 -79 2 -15 -13 -72 -20 -268 -31 -34 -2
-67 -6 -74 -10 -17 -11 -253 -14 -296 -4 -29 6 -42 4 -55 -7 -18 -17 -98 -20
-204 -8 -50 5 -69 3 -110 -15 -38 -17 -59 -21 -95 -16 -30 4 -49 3 -54 -4 -8
-15 -58 -14 -73 1 -19 19 -83 18 -126 -4 -36 -18 -45 -19 -95 -8 -30 7 -62 20
-70 29 -9 9 -12 11 -8 5 6 -9 2 -11 -12 -7 -16 4 -22 -2 -30 -28 -9 -29 -10
-23 -6 36 5 74 19 162 26 170 3 2 81 9 175 15 93 6 234 17 314 24 80 8 226 22
325 30 99 9 223 21 275 26 52 6 160 15 240 20 183 12 250 19 250 29 0 4 -15
12 -34 19 -18 7 -41 21 -51 32 -10 11 -24 20 -32 20 -7 0 -18 11 -24 23 -18
40 -61 59 -119 51 -28 -4 -53 -11 -56 -15 -3 -5 -14 -9 -26 -9 -14 0 -18 -5
-14 -15 4 -12 2 -13 -12 -7 -10 6 -31 5 -52 -2 l-35 -11 55 -3 c30 -2 59 -7
64 -12 5 -5 -2 -23 -18 -45 -15 -19 -24 -40 -21 -45 9 -15 -43 7 -92 38 -24
15 -43 32 -43 39 0 6 -18 26 -40 43 -45 36 -48 60 -10 71 20 6 17 7 -17 8 -26
1 -43 -4 -43 -10 0 -6 -7 -8 -17 -5 -21 8 -168 -5 -154 -14 13 -8 -4 -65 -27
-93 -14 -16 -12 -17 46 -11 91 10 99 3 60 -49 -37 -48 -43 -49 -115 -8 -34 20
-43 30 -43 52 0 15 -7 34 -15 43 -20 19 -19 25 8 49 l22 20 -55 -7 c-30 -3
-107 -11 -170 -17 -111 -10 -154 -19 -94 -19 20 0 25 -3 16 -9 -8 -4 -14 -12
-14 -17 -2 -27 -22 -64 -35 -64 -15 0 -43 23 -43 35 0 4 -7 14 -17 23 -15 15
-14 17 8 24 32 10 -87 2 -231 -16 -94 -12 -117 -12 -125 -2 -6 7 -45 29 -87
49 -43 19 -87 42 -98 50 l-21 14 23 1 c13 0 52 5 88 11 36 6 97 11 135 11 63
0 188 12 585 55 74 8 160 17 190 19 140 13 276 28 290 33 11 4 9 7 -8 12 -25
6 -31 28 -6 23 19 -4 18 27 -1 34 -26 10 -17 31 16 38 17 3 51 6 75 6 40 0 44
-2 44 -25 0 -14 6 -25 13 -26 9 0 9 -2 -1 -6 -10 -4 -10 -8 -1 -20 10 -12 10
-16 -2 -24 -19 -12 -7 -11 25 1 14 5 26 16 26 24 0 10 14 17 38 21 20 3 51 10
67 16 31 11 49 13 75 7 10 -2 15 5 15 24 0 38 12 46 75 53 61 7 94 -5 72 -27
-19 -19 -15 -48 8 -48 10 0 24 -8 29 -17 8 -14 13 -15 19 -6 4 7 18 11 31 8
20 -4 56 16 46 26 -2 2 20 5 47 7 28 2 67 11 86 21 l35 18 -23 16 -22 15 25
17 c17 11 41 15 74 13 49 -3 55 -10 38 -50 -9 -23 51 -34 100 -18 20 7 42 13
48 14 73 16 110 33 123 57 7 15 21 29 29 33 18 7 115 8 115 2 0 -2 -9 -25 -19
-50 l-20 -45 27 -6 c15 -3 52 2 82 10 30 9 78 20 107 25 28 4 57 11 63 15 6 4
27 7 46 7 42 0 54 20 28 49 -19 21 -13 34 21 42 34 8 41 7 52 -4z m1084 -146
c13 -16 12 -17 -3 -4 -10 7 -18 15 -18 17 0 8 8 3 21 -13z m49 -74 c0 -6 -4
-7 -10 -4 -5 3 -10 11 -10 16 0 6 5 7 10 4 6 -3 10 -11 10 -16z m-3130 4 c0
-19 -22 -83 -28 -83 -4 0 -16 -3 -28 -6 -15 -4 -32 5 -60 30 -39 36 -39 49 1
59 33 8 115 8 115 0z m-385 -55 c-3 -13 -9 -33 -12 -45 -7 -28 -29 -36 -58
-21 -12 7 -42 24 -66 37 l-43 23 25 14 c13 7 54 13 93 14 66 0 68 -1 61 -22z
m-389 -32 c3 -8 -2 -28 -11 -45 -19 -39 -44 -39 -104 -3 -75 46 -66 59 47 61
45 1 64 -3 68 -13z m517 -300 c7 -17 -53 -76 -78 -76 -22 0 -105 47 -105 60 0
24 174 39 183 16z m-343 -33 c0 -10 -65 -73 -75 -73 -25 0 -115 50 -115 64 0
12 17 16 83 18 80 3 107 1 107 -9z m-6130 -383 c-14 -4 -36 -8 -50 -8 -22 0
-22 1 5 8 17 4 39 8 50 8 16 0 15 -2 -5 -8z m-90 -31 c0 -5 9 -9 20 -9 11 0
20 4 20 9 0 6 24 7 56 4 32 -4 59 -2 62 4 5 6 20 6 42 0 35 -9 35 -9 11 -21
l-23 -13 23 -8 c24 -7 23 -7 -6 -15 -27 -7 -25 -8 18 -9 29 -1 46 -5 42 -11
-3 -6 6 -11 22 -12 46 -2 78 3 81 13 6 16 72 11 72 -6 0 -8 5 -15 11 -15 5 0
7 5 3 12 -5 8 -2 9 10 5 10 -4 24 -7 32 -7 9 0 13 -4 10 -8 -3 -5 18 -3 47 5
41 11 57 11 75 1 18 -9 33 -8 80 7 31 10 77 17 102 15 73 -5 187 -4 310 3 109
6 176 -2 206 -25 20 -15 98 -39 155 -49 32 -5 70 -16 85 -24 16 -8 35 -15 42
-15 6 0 12 -7 12 -16 0 -23 -66 -46 -137 -48 -56 -1 -75 -10 -58 -28 5 -5 68
4 115 17 20 5 22 4 10 -5 -12 -9 -8 -10 17 -5 18 4 43 3 55 -1 21 -6 19 -8
-17 -19 -22 -6 -44 -9 -50 -6 -21 11 -80 -1 -93 -20 -13 -19 -62 -27 -62 -9 0
10 -19 6 -57 -12 -12 -6 -20 -16 -16 -21 3 -6 1 -7 -5 -3 -7 4 -20 2 -29 -4
-14 -9 -2 -10 47 -4 36 4 104 7 152 6 48 -1 106 4 130 12 25 7 69 11 99 9 30
-3 95 0 144 6 131 16 130 16 273 -35 63 -23 54 -41 -25 -49 -78 -8 -143 -23
-105 -24 17 -1 22 -7 22 -30 0 -28 0 -28 -80 -35 -44 -3 -86 -9 -95 -12 -8 -4
-15 -2 -15 4 0 5 10 13 23 17 14 4 17 8 9 12 -7 3 -18 1 -25 -5 -12 -9 -75
-26 -132 -36 -16 -3 -60 -11 -97 -17 -68 -12 -90 -9 -180 23 -14 5 -37 9 -50
8 -41 -4 -59 0 -53 10 7 12 -79 12 -145 1 -50 -9 -46 -12 21 -16 25 -1 54 -7
65 -13 18 -11 18 -12 -3 -18 -13 -3 -23 -11 -23 -16 0 -6 -17 -8 -42 -4 -24 4
-63 7 -87 6 -26 0 -48 5 -55 14 -23 28 -136 39 -159 14 -2 -2 -11 5 -21 15
-10 9 -28 17 -41 17 -13 0 -26 4 -30 10 -3 5 -12 7 -20 3 -8 -3 -15 0 -15 6 0
6 -8 11 -17 11 -18 1 -60 27 -52 33 2 2 15 12 29 21 l25 18 -25 -5 c-14 -3
-58 -9 -99 -13 -67 -6 -74 -5 -68 10 6 14 -1 15 -66 10 -50 -4 -68 -3 -57 5
10 7 -4 9 -50 8 -59 -2 -65 0 -68 19 -3 20 -8 21 -113 20 -60 0 -109 1 -109 4
0 3 -17 14 -37 25 -21 11 -43 27 -50 35 -9 10 -12 11 -13 3 0 -8 -13 -13 -32
-13 l-33 0 23 18 c13 10 20 21 16 25 -10 10 -26 9 -20 -2 3 -4 -6 -6 -19 -3
-14 2 -25 8 -25 12 0 4 -11 11 -25 14 -13 3 -29 15 -34 25 -17 31 56 45 204
38 115 -5 164 2 115 18 -11 4 -18 11 -15 16 7 11 -36 29 -68 29 -18 0 -19 -2
-7 -10 20 -13 0 -13 -38 1 -18 6 -29 15 -26 20 3 5 -2 6 -10 3 -12 -4 -16 0
-16 16 0 17 -3 20 -12 12 -16 -12 -90 -14 -82 -1 3 5 -3 9 -13 9 -17 1 -17 1
0 14 9 7 17 18 17 24 0 12 44 20 73 14 9 -3 17 -8 17 -13z m546 -28 c-3 -5
-43 -11 -88 -14 -46 -3 -96 -9 -113 -13 -21 -5 -27 -3 -20 4 6 6 51 15 100 20
126 13 127 13 121 3z m-399 -87 c-3 -3 -12 -4 -19 -1 -8 3 -5 6 6 6 11 1 17
-2 13 -5z m1677 -29 c4 -13 2 -13 -14 -5 -25 14 -30 13 -24 -4 5 -13 2 -13
-20 -3 -37 17 -32 27 13 27 26 0 41 -5 45 -15z m15347 -81 c11 -14 10 -15 -11
-12 -13 1 -25 9 -28 16 -5 17 23 15 39 -4z m-17266 -54 c3 -5 2 -10 -4 -10 -5
0 -13 5 -16 10 -3 6 -2 10 4 10 5 0 13 -4 16 -10z m-808 -22 c-3 -8 -6 -5 -6
6 -1 11 2 17 5 13 3 -3 4 -12 1 -19z m67 7 c-4 -9 0 -15 10 -15 9 0 16 -5 16
-11 0 -7 -9 -9 -22 -5 -13 3 -28 6 -35 6 -6 0 -9 9 -6 20 3 11 14 20 24 20 12
0 16 -5 13 -15z m781 -35 c-5 -17 -2 -20 26 -20 26 0 30 -3 21 -12 -7 -7 -39
-13 -72 -13 -54 0 -59 2 -55 20 2 11 4 26 4 33 1 7 16 12 42 12 36 0 40 -2 34
-20z m612 -76 c-3 -3 -12 -4 -19 -1 -8 3 -5 6 6 6 11 1 17 -2 13 -5z m-1227
-138 c0 -3 -4 -8 -10 -11 -5 -3 -10 -1 -10 4 0 6 5 11 10 11 6 0 10 -2 10 -4z
m710 -56 c8 -5 11 -10 5 -10 -5 0 -17 5 -25 10 -8 5 -10 10 -5 10 6 0 17 -5
25 -10z m10269 -725 c6 -192 16 -465 21 -605 5 -140 14 -383 20 -540 5 -157
17 -465 25 -685 30 -794 35 -957 50 -1395 8 -245 22 -652 30 -905 8 -253 17
-543 21 -645 l6 -185 -24 -13 c-13 -7 -41 -34 -63 -59 -22 -25 -52 -60 -67
-77 -14 -17 -29 -28 -32 -25 -4 3 -11 174 -16 380 -5 206 -16 518 -24 694 -8
176 -18 428 -21 560 -3 132 -10 364 -15 515 -6 151 -16 475 -25 720 -8 245
-19 567 -25 715 -6 149 -15 425 -20 614 -6 190 -12 347 -14 348 -4 4 -181 -6
-786 -43 -140 -8 -272 -15 -295 -14 -62 3 -72 1 -57 -8 9 -7 12 -51 10 -188
l-3 -179 -35 137 c-19 75 -36 136 -37 134 -1 -1 1 -57 5 -124 5 -88 4 -122 -4
-122 -6 0 -11 15 -11 33 2 87 -5 330 -10 319 -2 -6 -9 -10 -13 -7 -5 3 -7 12
-4 20 3 7 1 22 -6 32 -8 14 -10 -27 -5 -170 3 -104 9 -195 12 -204 5 -12 3
-14 -11 -6 -14 8 -17 37 -22 218 -3 116 -9 216 -13 223 -4 7 -5 -17 -3 -52 l4
-65 -38 -6 c-75 -13 -84 -10 -84 25 0 36 13 38 35 8 16 -23 16 -23 9 7 -9 41
-32 65 -43 46 -16 -25 -22 -160 -11 -224 17 -93 54 -140 63 -79 3 19 4 15 6
-15 1 -51 -9 -59 -41 -33 -38 29 -53 98 -53 236 0 106 3 125 19 143 11 12 15
21 10 21 -17 0 -35 -17 -39 -36 -2 -10 -4 -23 -6 -29 -1 -5 -5 8 -9 30 -4 25
-8 -22 -9 -122 0 -89 3 -173 9 -187 9 -26 4 -31 -22 -21 -10 4 -12 30 -10 113
1 59 -1 148 -6 197 -9 84 -9 86 -11 30 -1 -42 -4 -55 -11 -45 -7 11 -8 9 -6
-11 1 -13 6 -30 10 -37 4 -7 2 -12 -3 -12 -7 0 -11 -40 -11 -112 0 -61 -2
-109 -5 -106 -3 3 -17 45 -31 94 -56 197 -53 194 -51 58 2 -103 0 -120 -13
-117 -13 3 -15 34 -16 191 -1 210 -2 219 -21 226 -17 7 -18 -37 0 -64 10 -17
9 -22 -1 -29 -11 -6 -13 -42 -10 -158 3 -147 3 -150 -17 -141 -18 8 -20 17
-17 108 3 100 3 100 -23 110 -38 15 -44 12 -12 -6 25 -13 28 -20 25 -57 -2
-33 -7 -42 -21 -41 -22 2 -33 -37 -18 -64 16 -30 14 -31 -16 -20 l-28 10 1
117 c0 64 -1 82 -3 41 -2 -41 -7 -84 -12 -95 -5 -11 -12 -28 -15 -37 -14 -45
-69 3 -97 84 -10 29 -18 45 -19 35 0 -10 -4 -15 -10 -12 -6 4 -10 -10 -10 -34
0 -23 -2 -41 -5 -41 -2 0 -20 8 -39 17 -29 13 -40 14 -61 5 -14 -7 -41 -12
-58 -12 -18 0 -38 -5 -43 -10 -6 -6 -60 -13 -120 -15 -60 -2 -120 -6 -134 -10
-14 -4 -36 -7 -50 -7 -27 1 74 -35 355 -123 239 -74 710 -227 1193 -386 292
-97 392 -134 392 -146 0 -8 -6 -13 -12 -10 -33 12 -519 167 -823 262 -187 58
-367 115 -400 126 -33 10 -159 49 -280 85 -706 212 -718 215 -687 195 22 -13
-32 -23 -62 -11 -34 12 -33 15 6 18 18 2 33 4 35 6 2 2 -53 20 -122 40 -135
40 -143 39 -160 -12 -5 -19 -9 -21 -21 -11 -11 9 -18 9 -29 -1 -11 -9 -34 -11
-80 -6 -50 5 -65 4 -65 -6 0 -18 -36 -39 -55 -32 -8 4 -22 1 -30 -6 -12 -10
-15 -9 -15 8 0 11 -3 28 -7 38 -5 14 -3 16 11 11 12 -5 19 -2 23 10 7 27 109
67 168 66 62 0 88 -9 -329 117 -343 103 -349 105 -352 132 -1 15 1 30 6 33 4
3 95 -22 202 -56 358 -113 653 -203 703 -216 15 -3 17 -2 6 5 -26 19 218 46
248 28 6 -4 9 -16 6 -26 -3 -10 -1 -22 6 -25 8 -6 8 -10 -2 -15 -10 -7 -10
-11 0 -24 11 -13 11 -16 1 -16 -8 0 -11 -2 -8 -5 3 -3 18 1 33 9 16 8 49 20
75 26 45 11 48 14 54 51 6 36 9 40 33 37 21 -2 38 -18 49 -46 1 -1 14 3 30 9
16 7 34 11 41 10 6 -1 15 4 19 10 5 8 3 9 -7 4 -8 -5 -7 0 4 12 28 32 23 171
-12 323 -16 69 -32 136 -36 148 -8 24 -8 24 23 8 17 -9 29 -22 27 -29 -3 -6 3
-55 14 -107 21 -105 27 -101 39 28 l7 69 85 -37 85 -37 2 -44 c2 -32 0 -39 -6
-24 -5 12 -16 27 -25 34 -15 12 -16 0 -16 -140 0 -85 4 -159 8 -164 4 -6 22
-10 40 -10 l32 0 0 148 c0 83 -5 157 -10 168 -11 19 -10 19 37 0 45 -17 48
-21 50 -57 2 -34 1 -36 -9 -17 -6 12 -17 24 -24 27 -11 4 -14 -10 -14 -70 0
-50 4 -74 11 -72 6 2 10 7 10 11 -2 12 23 35 32 30 4 -2 8 -34 8 -71 l2 -67 7
70 c4 39 11 85 15 104 5 22 5 32 -2 28 -5 -3 -10 0 -10 8 0 10 4 12 12 5 9 -7
16 -6 24 4 9 11 9 15 -1 18 -31 11 115 58 177 58 24 0 35 -6 43 -25 17 -37 55
-52 85 -32 13 8 50 18 83 22 32 4 62 13 66 18 4 7 77 13 197 15 105 3 191 8
191 12 0 9 116 18 385 31 116 5 260 12 320 15 61 3 161 6 223 7 114 2 114 2
128 30 9 15 14 40 12 55 -3 27 -4 27 -68 24 -70 -2 -204 -27 -229 -42 -19 -11
-15 -12 69 -11 62 1 64 1 35 -12 -16 -8 -80 -16 -142 -20 l-111 -6 -7 39 c-4
22 -4 44 0 50 13 21 25 9 25 -24 0 -32 2 -34 41 -38 33 -3 43 0 46 13 10 36
57 57 159 68 54 7 119 14 143 17 l43 6 -6 51 c-3 29 -8 163 -12 299 l-7 248
33 30 c38 35 71 38 111 9 l29 -20 7 43 c9 48 14 -49 32 -637z m-10216 658
c-15 -3 -23 -12 -23 -24 0 -23 -25 -25 -34 -3 -10 25 2 34 42 33 23 -1 29 -3
15 -6z m2162 -105 c444 -117 409 -108 666 -179 123 -34 274 -74 334 -88 l110
-27 6 -79 c3 -44 3 -84 0 -90 -3 -5 -4 -20 -2 -33 1 -13 -4 -25 -13 -28 -9 -3
-14 -10 -11 -14 3 -5 -25 -11 -62 -14 -38 -4 -106 -11 -153 -16 -47 -6 -130
-12 -185 -15 -55 -2 -129 -7 -165 -11 -66 -6 -101 0 -435 71 -60 13 -198 42
-305 65 -243 51 -622 133 -975 210 -148 32 -324 71 -390 85 -66 14 -174 37
-240 51 -155 32 -155 32 -132 49 10 7 55 16 100 20 45 4 109 13 142 19 50 11
55 14 35 20 -25 7 -25 7 8 22 24 11 38 12 52 4 19 -10 24 -6 21 13 -1 5 3 6 9
2 5 -3 10 0 11 7 0 10 2 10 6 0 2 -6 9 -9 15 -6 14 9 88 10 88 2 0 -4 11 -3
25 2 20 8 27 6 31 -5 4 -8 17 -15 31 -15 13 0 22 -4 19 -8 -3 -5 39 -8 92 -7
87 2 147 -4 207 -21 20 -6 20 -6 0 9 -18 14 -17 15 30 22 28 3 75 11 105 17
113 21 169 28 325 38 88 6 174 15 190 19 36 9 -4 18 410 -91z m14937 40 c-9
-9 -15 -9 -24 0 -10 10 -10 15 2 22 20 12 38 -6 22 -22z m-52 18 c0 -2 -3 -11
-6 -20 -9 -23 -24 -20 -24 4 0 11 7 20 15 20 8 0 15 -2 15 -4z m-16543 -22
c-3 -3 -12 -4 -19 -1 -8 3 -5 6 6 6 11 1 17 -2 13 -5z m5978 -39 c37 -17 56
-33 60 -48 2 -12 11 -94 20 -181 8 -88 16 -161 18 -162 2 -2 9 67 16 154 7 86
16 160 19 164 4 4 32 -5 62 -20 l55 -27 3 -332 c1 -183 0 -333 -3 -333 -3 0
-21 7 -40 14 l-35 15 0 167 c0 92 -2 165 -4 163 -2 -2 -9 -69 -16 -149 -7 -80
-15 -150 -19 -157 -4 -8 -14 -8 -37 2 l-31 13 -13 118 c-24 222 -27 229 -29
56 l-1 -163 -22 7 c-13 4 -33 10 -45 15 l-23 9 0 350 c0 192 2 350 5 350 2 0
29 -11 60 -25z m10461 -4 c-3 -4 -1 -22 4 -40 7 -24 6 -31 -5 -31 -9 0 -13 11
-13 33 1 32 5 47 14 47 3 0 3 -4 0 -9z m-736 -101 c0 -5 7 -10 15 -10 8 0 15
-4 15 -10 0 -15 53 -12 77 5 16 11 39 13 102 8 44 -3 81 -10 81 -14 0 -4 9 -7
20 -6 11 1 20 5 20 10 0 21 24 -2 27 -26 3 -19 -1 -27 -12 -27 -14 0 -14 -3 1
-26 23 -34 6 -50 -60 -59 -27 -3 -53 -8 -58 -11 -4 -3 -8 -1 -8 5 0 5 -12 4
-27 -5 -47 -24 -183 -10 -183 19 0 4 -4 5 -10 2 -5 -3 -10 -1 -10 5 0 6 -7 10
-16 8 -11 -2 -21 8 -28 30 -6 18 -14 31 -17 28 -2 -3 -4 7 -3 21 0 17 8 29 21
34 12 4 24 12 28 18 8 14 25 14 25 1z m411 -11 c16 -8 44 -13 100 -18 11 -1 5
-51 -6 -51 -6 0 -21 -13 -34 -29 -22 -26 -27 -28 -50 -18 -14 6 -29 16 -33 21
-11 16 2 28 23 23 20 -5 23 3 13 41 -4 15 -14 22 -30 22 -13 0 -24 5 -24 10 0
13 16 13 41 -1z m-9725 -74 l62 -27 7 -80 c3 -44 4 -82 1 -85 -3 -3 -28 4 -56
15 l-50 21 0 -38 c0 -36 3 -39 44 -55 l44 -17 4 -72 c2 -40 1 -76 -3 -80 -3
-5 -23 -1 -44 7 -21 9 -39 16 -41 16 -2 0 -4 -54 -4 -120 0 -66 -4 -120 -9
-120 -4 0 -21 5 -38 10 l-30 11 -6 211 c-4 116 -7 267 -7 335 l0 123 33 -14
c17 -8 60 -26 93 -41z m10279 15 c-3 -5 -30 -9 -58 -9 -49 2 -50 2 -17 9 53
11 82 11 75 0z m-5315 -40 c0 -5 -11 -10 -25 -10 -14 0 -25 5 -25 10 0 6 11
10 25 10 14 0 25 -4 25 -10z m4980 0 c0 -5 -2 -10 -4 -10 -2 0 -11 -2 -19 -5
-8 -4 -14 0 -14 10 0 8 9 15 19 15 10 0 18 -4 18 -10z m34 -21 c-10 -16 -24
-9 -24 12 0 18 2 19 15 9 8 -7 12 -16 9 -21z m-9811 -227 c4 -107 7 -250 7
-318 l0 -122 -34 10 c-45 14 -46 20 -46 370 l0 288 33 -16 34 -16 6 -196z
m162 111 c70 -35 87 -68 93 -183 5 -91 -12 -154 -43 -166 -25 -10 -30 4 -12
35 34 57 17 241 -24 266 -10 7 -11 -46 -6 -266 6 -239 9 -276 24 -286 29 -22
6 -26 -42 -8 -32 13 -43 21 -35 29 6 6 10 107 10 287 0 234 -2 278 -15 289
-14 12 -20 30 -10 30 2 0 29 -12 60 -27z m238 -193 c14 -11 36 -46 48 -78 20
-49 23 -76 23 -197 1 -118 -2 -147 -18 -183 -26 -58 -59 -66 -97 -24 -42 46
-61 121 -66 257 -6 130 5 193 38 226 24 24 40 24 72 -1z m138 -66 c25 -13 28
-18 18 -30 -9 -11 -11 -63 -6 -212 6 -170 9 -199 24 -209 25 -19 33 -16 33 12
0 14 5 25 11 25 9 0 5 -88 -6 -98 -2 -2 -25 6 -52 17 l-48 21 0 223 c0 122 -4
232 -8 245 -10 26 -6 27 34 6z m2074 -10 c0 -12 -8 -20 -22 -22 -25 -4 -31 16
-11 36 17 17 33 10 33 -14z m-9974 -103 c-8 -5 -20 -7 -28 -4 -21 8 -15 13 15
13 20 0 23 -3 13 -9z m-178 -218 c-7 -2 -19 -2 -25 0 -7 3 -2 5 12 5 14 0 19
-2 13 -5z m118 -13 c11 0 19 -4 19 -10 0 -5 -13 -10 -30 -10 -16 0 -30 4 -30
9 0 5 -8 12 -17 14 -10 2 -5 3 11 1 16 -2 37 -4 47 -4z m294 -10 c3 -5 0 -7
-8 -4 -8 3 -22 -2 -31 -11 -13 -13 -16 -14 -16 -2 0 7 3 17 7 20 10 10 41 8
48 -3z m8455 -61 c0 -6 -4 -7 -10 -4 -5 3 -10 11 -10 16 0 6 5 7 10 4 6 -3 10
-11 10 -16z m-6755 -188 c39 -6 126 -18 195 -26 607 -70 1109 -141 1127 -159
15 -14 -16 -24 -99 -30 -174 -14 -362 -17 -448 -7 -154 18 -619 79 -965 127
-187 25 -364 49 -393 51 -50 5 -83 22 -45 24 14 0 15 2 3 7 -58 25 475 36 625
13z m7352 -47 c1 -16 -1 -21 -3 -11 -3 9 -10 17 -15 17 -15 0 -10 -63 11 -132
15 -46 20 -86 18 -134 -3 -61 -5 -69 -23 -69 -16 0 -20 7 -22 40 -1 35 -1 36
5 10 4 -16 12 -30 17 -30 19 0 16 76 -4 135 -20 58 -28 160 -15 195 10 25 29
12 31 -21z m95 -43 c7 -21 6 -22 -7 -11 -14 12 -16 -3 -13 -148 2 -95 -1 -161
-6 -159 -10 3 -10 14 -14 210 -2 96 -5 117 -17 117 -8 0 -15 9 -15 20 0 19 2
19 31 7 18 -7 36 -23 41 -36z m-2485 9 c-1 -11 6 -14 30 -12 17 2 34 -1 38 -7
7 -13 4 -13 -90 -17 -38 -1 -70 -3 -70 -4 0 0 -23 -2 -52 -4 -57 -4 -86 6 -56
19 22 10 44 16 61 17 6 1 12 5 12 9 0 8 47 14 102 14 19 0 27 -5 25 -15z
m2525 -93 c-2 -45 1 -123 5 -173 7 -73 6 -91 -4 -87 -10 4 -13 43 -13 157 0
83 -3 161 -6 174 -5 16 -3 21 7 17 11 -4 13 -25 11 -88z m72 51 l44 -21 7
-136 c7 -149 11 -181 24 -181 17 0 21 51 15 176 -4 76 -4 125 2 122 15 -10 11
-305 -3 -319 -9 -9 -16 -10 -23 -3 -17 17 -30 120 -30 231 0 57 -4 105 -10
108 -5 3 -10 1 -10 -5 0 -6 -5 -8 -10 -5 -8 5 -10 -42 -8 -148 2 -109 0 -153
-8 -150 -6 2 -9 14 -7 26 2 12 0 83 -4 157 -6 99 -11 134 -21 133 -6 -2 -12 6
-12 17 0 25 0 25 54 -2z m151 -70 c14 -6 25 -20 25 -30 0 -11 -5 -16 -11 -13
-7 5 -10 -36 -7 -138 2 -80 0 -143 -3 -141 -3 2 -8 70 -11 151 -4 97 -9 148
-17 151 -10 3 -16 32 -6 32 2 0 16 -5 30 -12z m71 -40 c4 -6 2 -14 -4 -16 -7
-2 -12 -25 -12 -58 0 -41 4 -54 15 -54 8 0 15 -7 15 -15 0 -8 -4 -15 -10 -15
-6 0 -10 -28 -10 -65 0 -51 3 -65 15 -65 8 0 15 -4 15 -9 0 -15 -14 -21 -29
-12 -16 10 -29 321 -13 321 6 0 14 -5 18 -12z m-2212 -104 c31 -30 38 -57 37
-128 -1 -39 -2 -82 -2 -96 0 -14 5 -48 12 -75 14 -59 5 -135 -19 -165 -15 -17
-23 -19 -62 -12 l-45 8 -8 201 c-9 240 -3 283 43 283 16 0 36 -7 44 -16z m168
-184 c9 -19 20 -66 24 -104 l7 -69 -47 6 c-43 6 -46 5 -46 -17 0 -34 19 -84
36 -90 8 -3 19 4 25 16 8 15 13 17 19 8 11 -17 2 -45 -21 -66 -18 -16 -20 -16
-39 1 -32 29 -44 84 -45 195 0 86 3 111 18 134 23 35 47 30 69 -14z m521 -117
c9 -219 9 -283 -3 -283 -5 0 -10 8 -11 18 0 13 -3 11 -9 -6 -8 -19 -13 -21
-29 -13 -45 25 -61 264 -21 312 l20 24 20 -25 21 -25 -6 78 c-4 45 -3 77 3 77
5 0 12 -71 15 -157z m-5580 125 c15 -12 15 -16 3 -40 -10 -20 -11 -25 -2 -22
16 6 66 -13 66 -25 0 -18 -55 -21 -123 -7 -80 17 -99 30 -95 65 2 21 10 27 38
32 60 11 95 10 113 -3z m5135 -122 c8 -64 18 -116 21 -116 4 0 12 48 18 106 6
58 16 111 22 117 16 16 14 -22 -9 -203 -29 -224 -35 -245 -66 -233 -19 7 -18
53 1 53 27 0 28 51 1 214 -30 184 -31 205 -15 189 6 -6 18 -63 27 -127z
m-1582 -43 c-14 -55 -30 -111 -36 -124 -19 -44 -2 68 28 175 35 132 42 86 8
-51z m2178 125 c9 -12 16 -33 16 -47 l0 -24 -21 27 c-27 35 -39 25 -39 -34 0
-37 6 -55 25 -78 34 -41 45 -74 45 -140 0 -62 -17 -107 -40 -107 -19 0 -52 59
-48 87 3 21 5 21 21 -10 24 -45 41 -36 45 25 3 43 -2 57 -33 102 -31 47 -35
60 -35 118 0 96 29 132 64 81z m66 -138 l2 -125 18 64 c20 66 26 78 36 69 3
-3 -2 -31 -11 -62 -15 -52 -15 -62 0 -136 19 -91 15 -134 -4 -50 -7 30 -15 64
-18 75 l-6 20 -8 -20 c-4 -11 -9 -40 -10 -65 -4 -76 -17 123 -17 265 0 81 3
122 8 110 5 -11 9 -76 10 -145z m-484 118 c22 -42 31 -210 15 -261 -39 -116
-102 -30 -102 138 0 76 7 122 24 143 17 22 46 13 63 -20z m77 -15 c11 28 37
19 53 -18 10 -25 14 -71 13 -167 -1 -101 -3 -122 -10 -88 -4 25 -8 79 -8 120
-1 88 -8 120 -26 120 -21 0 -25 -25 -25 -151 0 -179 -18 -147 -22 39 -3 155 1
200 12 152 5 -21 7 -22 13 -7z m494 -20 c-3 -10 -5 -4 -5 12 0 17 2 24 5 18 2
-7 2 -21 0 -30z m51 -223 c-1 -148 -2 -156 -9 -75 -10 126 -9 357 1 290 5 -27
8 -124 8 -215z m40 25 c-1 -180 -2 -184 -8 -75 -11 168 -10 309 0 285 5 -11 8
-105 8 -210z m232 126 c0 -5 12 -87 26 -181 14 -95 23 -174 20 -177 -2 -3 -8
12 -11 33 -10 60 -13 64 -40 64 -23 0 -25 -4 -25 -44 0 -25 -4 -48 -10 -51
-12 -8 -13 -20 5 160 8 83 15 162 15 178 0 15 5 27 10 27 6 0 10 -4 10 -9z
m-311 -189 c1 -73 -3 -111 -9 -107 -6 4 -10 65 -9 153 1 106 4 136 10 107 4
-22 8 -91 8 -153z m473 150 c8 -9 13 -46 14 -96 0 -45 4 -101 8 -126 4 -25 4
-61 -1 -80 -8 -30 -14 -35 -39 -35 l-29 0 -3 182 c-2 177 -2 181 17 176 11 -3
26 -12 33 -21z m-320 -17 c6 -14 8 -28 3 -33 -4 -4 -10 -1 -12 6 -3 6 -9 12
-14 12 -17 0 -9 -62 11 -96 26 -41 26 -159 0 -159 -17 0 -48 51 -36 62 4 4 12
0 17 -10 6 -9 14 -15 20 -12 16 10 10 58 -11 90 -25 38 -35 102 -21 138 13 34
28 35 43 2z m459 -95 c5 0 9 -9 9 -20 0 -11 -5 -20 -11 -20 -16 0 -5 -165 11
-186 10 -11 10 -18 2 -26 -8 -8 -13 -8 -17 3 -10 26 -21 232 -16 284 l6 50 3
-42 c2 -24 7 -43 13 -43z m50 -10 c5 0 9 -9 9 -20 0 -11 -5 -20 -11 -20 -14 0
-1 -169 14 -188 7 -9 7 -16 0 -23 -18 -18 -24 5 -31 121 -7 108 -2 254 6 168
2 -21 7 -38 13 -38z m176 -42 c-2 -18 -4 -6 -4 27 0 33 2 48 4 33 2 -15 2 -42
0 -60z m-278 41 c6 -18 11 -52 11 -75 0 -40 -2 -44 -24 -44 -18 0 -23 -5 -21
-17 16 -81 15 -80 32 -58 14 19 14 19 11 -9 -2 -16 -8 -31 -15 -33 -21 -7 -34
36 -40 125 -7 120 20 185 46 111z m348 -1 c-3 -7 -5 -2 -5 12 0 14 2 19 5 13
2 -7 2 -19 0 -25z m37 -13 c-4 -30 -2 -50 6 -60 9 -11 9 -19 2 -28 -6 -7 -12
-35 -15 -62 -2 -28 -4 -2 -5 57 -2 97 3 138 15 138 2 0 1 -20 -3 -45z m-2564
1 c0 -2 -9 -6 -20 -9 -11 -3 -20 -1 -20 4 0 5 9 9 20 9 11 0 20 -2 20 -4z
m2349 -33 c6 -21 11 -55 11 -75 0 -31 -4 -38 -20 -38 -16 0 -20 -7 -20 -33 0
-40 8 -51 28 -35 11 10 13 8 10 -12 -1 -13 -9 -25 -15 -28 -20 -6 -35 46 -36
128 -3 119 21 171 42 93z m49 9 c13 11 14 9 7 -17 -4 -16 -11 -73 -14 -125
l-7 -95 -2 76 c-1 42 -4 98 -7 125 -3 27 -2 43 1 36 5 -10 9 -10 22 0z m-2373
-181 c-14 -14 -17 -14 -25 -1 -14 22 -12 40 5 34 19 -8 28 31 23 91 -3 24 -2
47 1 51 3 3 7 -31 9 -77 2 -65 -1 -86 -13 -98z m2502 22 c-2 -27 -3 -5 -3 47
0 52 1 74 3 48 2 -27 2 -69 0 -95z m93 102 c0 -8 -4 -15 -10 -15 -5 0 -10 -15
-10 -34 0 -25 5 -35 20 -39 13 -3 18 -11 14 -20 -3 -9 -12 -13 -19 -11 -9 4
-15 -5 -18 -28 -2 -18 -5 8 -5 58 -1 50 1 94 5 97 11 12 23 8 23 -8z m-2706
-105 c16 0 29 -27 20 -41 -3 -5 -16 -9 -30 -9 -23 0 -24 3 -24 68 0 81 14 106
18 33 2 -34 7 -51 16 -51z m2576 -60 c14 0 20 -7 20 -21 0 -15 -4 -19 -16 -15
-9 3 -20 6 -25 6 -5 0 -8 43 -7 98 l2 97 3 -82 c3 -75 6 -83 23 -83z m-673 63
c-2 -16 -4 -3 -4 27 0 30 2 43 4 28 2 -16 2 -40 0 -55z m810 40 c-3 -10 -5 -4
-5 12 0 17 2 24 5 18 2 -7 2 -21 0 -30z m8 -143 c-8 -24 -28 -22 -33 5 -2 10
0 15 6 11 6 -3 14 -1 17 5 11 17 18 3 10 -21z m-5650 -100 c4 -6 -6 -10 -22
-10 -22 0 -25 2 -13 10 19 12 27 12 35 0z m-1988 -146 c13 -4 20 -11 16 -17
-4 -6 0 -8 11 -4 18 7 69 -20 62 -32 -3 -4 0 -13 5 -21 8 -13 12 -12 24 4 12
16 15 17 15 4 0 -9 14 -22 30 -30 17 -7 30 -16 30 -20 0 -5 16 -8 35 -8 19 0
35 -5 35 -11 0 -8 29 -9 103 -4 60 4 112 2 127 -3 24 -10 23 -11 -18 -17 -23
-4 -45 -11 -48 -16 -9 -15 -7 -81 3 -87 20 -13 25 -53 10 -70 -9 -9 -18 -34
-22 -54 -7 -36 -6 -37 27 -43 18 -4 53 -4 77 -1 34 3 41 2 37 -10 -4 -11 5
-14 39 -14 33 0 45 -4 45 -15 0 -13 29 -21 61 -17 21 3 27 -420 9 -618 -7 -69
-13 -263 -13 -431 -2 -228 -5 -310 -14 -321 -13 -15 -17 -78 -11 -148 3 -29
-1 -36 -25 -48 -39 -19 -95 0 -110 37 -7 15 -17 26 -24 24 -6 -2 -13 6 -15 19
-2 14 -12 24 -28 28 -24 6 -24 6 -5 18 18 10 17 12 -15 13 -19 1 -42 2 -50 3
-8 2 -23 3 -33 4 -13 2 -17 7 -12 21 4 15 1 18 -18 14 -17 -3 -29 4 -46 26
-20 26 -31 31 -67 31 -34 0 -42 3 -38 15 5 12 -2 15 -30 15 -40 0 -49 16 -13
23 13 3 8 5 -15 6 -21 0 -38 4 -38 9 0 4 -12 15 -26 26 -22 15 -28 16 -35 5
-7 -11 -9 -10 -9 4 0 10 -4 16 -9 12 -6 -3 -7 9 -4 30 5 33 4 35 -21 35 -22 0
-26 4 -26 30 0 21 -5 30 -16 30 -9 0 -12 -5 -8 -12 4 -7 3 -8 -4 -4 -7 4 -12
22 -12 41 0 19 -6 35 -14 38 -9 4 -12 14 -9 26 3 12 1 21 -5 21 -8 0 -24 31
-51 100 -10 25 -3 892 8 1065 12 195 25 261 52 268 10 3 19 12 19 21 0 17 35
21 77 10z m3896 -184 c-44 -70 -150 -174 -232 -228 -83 -56 -208 -119 -217
-109 -2 2 24 16 58 31 142 62 267 159 359 281 45 60 62 73 32 25z m-2075 -265
c4 -65 -4 -70 -120 -72 -57 -1 -132 -3 -168 -6 -35 -3 -70 -2 -77 0 -14 6 -18
80 -5 100 8 13 86 19 257 18 l110 0 3 -40z m737 15 c8 -14 17 -38 20 -55 6
-29 7 -29 21 -11 13 19 15 16 18 -16 1 -7 8 -18 16 -24 12 -10 12 -14 1 -28
-11 -13 -11 -19 -1 -31 13 -15 5 -39 -11 -30 -5 4 -12 -1 -15 -9 -3 -9 -12
-16 -20 -16 -8 0 -14 -4 -14 -10 0 -11 -39 -13 -64 -4 -9 3 -16 12 -16 20 0 8
-8 14 -17 14 -11 0 -25 15 -35 38 -25 56 -39 104 -28 97 6 -4 10 2 10 12 0 10
13 33 28 51 22 27 33 32 60 30 24 -2 37 -10 47 -28z m-3960 -10 c4 -11 5 -50
4 -88 -2 -83 -28 -137 -73 -152 -43 -14 -90 0 -94 29 -2 12 -14 26 -26 31 -19
7 -24 18 -29 67 -4 33 -3 72 2 89 7 29 8 29 97 35 49 3 94 6 101 7 6 1 15 -7
18 -18z m2591 -76 c8 -44 -9 -71 -43 -72 -56 0 -73 25 -57 84 5 18 13 21 50
20 41 -1 44 -3 50 -32z m574 -39 c6 -8 18 -11 26 -8 13 5 15 -5 12 -58 -4 -78
-1 -77 -189 -78 -151 -1 -149 -2 -149 67 0 25 8 44 27 64 26 28 28 28 144 27
87 0 121 -4 129 -14z m1330 -5 c13 -8 13 -10 -2 -10 -9 0 -20 5 -23 10 -8 13
5 13 25 0z m-191 -64 c10 -11 10 -20 1 -37 -16 -29 2 -40 55 -32 l41 5 3 -45
c1 -37 -2 -48 -19 -57 -11 -6 -25 -8 -30 -5 -6 4 -22 -3 -36 -14 -37 -29 -50
-26 -58 10 -3 18 -14 38 -24 45 -16 12 -15 14 9 41 22 23 25 32 17 50 -20 42
14 72 41 39z m315 -42 c3 -9 6 -46 6 -84 0 -80 1 -80 -111 -80 l-79 0 0 80 0
79 33 6 c17 3 55 6 82 8 28 2 53 4 56 5 4 1 10 -5 13 -14z m-4591 -81 c-7 -2
-19 -2 -25 0 -7 3 -2 5 12 5 14 0 19 -2 13 -5z m3227 -7 c-6 -8 -24 -16 -38
-18 -24 -3 -27 -8 -30 -44 -2 -27 2 -45 13 -54 19 -16 19 -54 0 -70 -9 -7 -15
-29 -15 -51 0 -37 2 -39 30 -39 17 0 30 -4 30 -9 0 -13 -107 -21 -276 -21
l-154 0 1 143 c1 114 4 145 16 160 14 15 39 17 226 17 181 0 208 -2 197 -14z
m6205 -66 c94 8 136 6 146 -6 9 -11 5 -16 -15 -25 -14 -7 -26 -18 -26 -25 0
-14 -123 -144 -187 -197 -38 -31 -52 -36 -119 -42 -49 -5 -79 -4 -86 3 -7 7
-19 7 -34 2 -14 -6 -35 -5 -53 1 -23 8 -35 7 -53 -5 -24 -16 -164 -21 -173 -6
-8 13 268 288 295 294 14 3 66 2 117 -2 71 -6 96 -4 110 6 10 7 29 11 43 7 14
-3 30 -5 35 -5z m1814 -155 c-13 -13 -18 -13 -33 -2 -15 11 -17 21 -12 42 l7
28 27 -26 c24 -24 25 -28 11 -42z m-6923 -282 c-8 -16 -26 -38 -41 -51 -23
-20 -26 -29 -21 -58 6 -29 4 -34 -12 -34 -29 0 -85 26 -105 48 -18 19 -16 21
70 71 48 28 96 51 106 51 16 0 16 -2 3 -27z m-5185 -28 c3 -2 3 -21 1 -40 l-4
-36 -47 3 c-39 3 -46 6 -49 26 -6 41 4 52 51 52 24 0 46 -2 48 -5z m479 -229
c0 -3 -31 -24 -155 -101 -16 -10 -25 -14 -20 -8 9 10 166 113 173 113 1 0 2
-2 2 -4z m11630 -49 c0 -24 -3 -28 -10 -17 -13 20 -13 63 0 55 6 -3 10 -21 10
-38z m-8987 -19 c7 -26 6 -27 -22 -33 -26 -5 -39 19 -21 40 18 22 37 18 43 -7z
m-59 -27 c3 -4 -3 -16 -12 -25 -16 -13 -21 -14 -37 -2 -10 7 -15 18 -11 24 8
14 52 16 60 3z m1446 -169 c-29 -4 -32 -6 -15 -12 12 -5 -19 -9 -80 -9 -95 1
-98 1 -65 14 20 8 70 13 115 13 44 -1 64 -3 45 -6z m5878 -214 c-3 -7 -17 -15
-33 -16 -25 -3 -27 -2 -16 12 16 19 55 22 49 4z m-7839 -67 c8 -5 11 -16 8
-25 -6 -15 -9 -15 -41 1 -19 9 -33 20 -30 25 7 11 45 10 63 -1z m7035 -612
c54 -6 109 -15 123 -20 34 -13 66 -12 57 2 -5 9 6 10 42 6 27 -4 81 -10 121
-13 41 -4 74 -12 77 -19 7 -19 -7 -66 -41 -131 -30 -58 -54 -81 -73 -69 -5 3
-88 10 -185 15 -97 5 -181 12 -186 15 -5 4 -9 35 -9 71 0 35 -3 64 -7 64 -5 0
-53 -27 -108 -60 -55 -33 -110 -63 -122 -66 -12 -3 -50 -2 -85 3 -57 8 -63 11
-61 31 3 20 -2 22 -41 22 -25 0 -57 -5 -73 -11 -19 -7 -39 -7 -63 -1 -19 6
-75 16 -125 22 -138 17 -155 21 -155 35 0 9 20 16 58 20 31 3 78 11 104 17 46
11 148 3 267 -21 41 -8 47 -7 71 18 14 14 31 34 36 44 7 11 26 20 50 23 21 2
53 8 69 13 33 9 106 6 259 -10z m264 -294 c-2 -3 -77 -7 -166 -11 -135 -6
-162 -5 -162 7 0 12 29 13 166 11 92 -2 164 -5 162 -7z m156 -4 c11 -4 15 -10
10 -13 -11 -6 -142 7 -151 16 -9 9 118 6 141 -3z m-4894 -1021 c0 -5 -5 -10
-11 -10 -5 0 -7 5 -4 10 3 6 8 10 11 10 2 0 4 -4 4 -10z"/>
<path d="M4643 9387 c-10 -15 -26 -2682 -19 -3167 3 -269 9 -378 25 -495 60
-447 165 -787 358 -1160 134 -257 354 -524 545 -658 292 -207 622 -220 901
-38 92 61 219 195 301 319 205 311 321 699 356 1192 13 175 -7 2276 -21 2300
-9 14 -2 -2026 7 -2041 8 -14 -18 -371 -36 -496 -100 -694 -432 -1210 -845
-1318 -281 -73 -555 22 -826 287 -162 158 -277 321 -399 570 -60 119 -156 360
-183 458 -68 240 -105 428 -132 680 -18 157 -19 629 -9 2372 8 1175 5 1124 55
1098 10 -6 19 -8 19 -4 0 4 9 -1 19 -10 11 -10 41 -29 69 -44 27 -15 69 -39
93 -53 102 -60 366 -209 371 -209 3 0 45 -24 94 -54 49 -29 166 -95 259 -146
94 -51 181 -101 195 -110 14 -9 59 -35 100 -57 41 -23 158 -89 260 -148 353
-205 503 -285 535 -285 17 0 35 -4 41 -8 14 -13 70 -35 59 -24 -11 11 -449
269 -775 457 -240 138 -888 511 -1145 658 -255 146 -262 150 -272 134z"/>
<path d="M5249 8273 c-1 -302 -3 -561 -4 -578 -2 -16 0 -69 3 -117 l5 -87 73
-31 c40 -16 80 -30 88 -30 13 0 15 50 16 427 0 234 2 428 5 431 3 3 8 2 12 -2
7 -7 12 -44 83 -599 21 -170 43 -314 49 -321 11 -12 139 -61 145 -55 3 4 60
413 93 659 8 63 20 121 26 129 9 11 13 -89 17 -418 l5 -432 70 -28 70 -28 3
605 c1 333 -1 609 -5 613 -14 13 -230 129 -240 129 -6 0 -13 -21 -16 -47 -7
-56 -74 -523 -82 -570 -7 -38 -22 -43 -30 -10 -3 12 -18 128 -35 257 -62 488
-61 484 -78 501 -14 14 -258 149 -269 149 -2 0 -4 -246 -4 -547z"/>
<path d="M6080 7766 l0 -604 82 -33 c45 -19 86 -35 90 -37 4 -2 8 105 8 237 0
138 4 241 9 241 5 0 38 -16 74 -35 36 -20 82 -42 101 -50 l36 -15 0 115 0 115
-110 55 -110 55 0 100 c0 62 4 100 10 100 6 0 62 -27 125 -61 l115 -60 0 119
c0 84 -4 123 -12 129 -11 9 -317 180 -395 222 l-23 12 0 -605z m312 335 c-11
-7 -11 -9 2 -14 10 -4 16 -1 16 9 0 8 5 12 10 9 20 -12 10 -34 -17 -38 -16 -3
-2 -4 30 -3 31 1 57 -1 57 -6 0 -4 -5 -8 -11 -8 -5 0 -7 -5 -3 -11 4 -8 -1 -9
-17 -3 -13 4 -39 10 -58 13 -24 4 -35 12 -37 26 -3 19 11 35 31 35 6 0 4 -4
-3 -9z m-282 -61 c0 -5 -5 -10 -11 -10 -5 0 -7 5 -4 10 3 6 8 10 11 10 2 0 4
-4 4 -10z m303 -322 c38 -15 57 -28 57 -40 0 -15 -4 -15 -30 -6 -17 5 -41 7
-55 4 -14 -4 -45 -1 -70 5 -38 10 -44 15 -41 33 5 25 -1 21 44 24 21 2 62 -7
95 -20z"/>
<path d="M6562 7948 l3 -153 78 -3 77 -2 0 109 c0 124 3 119 -108 175 l-53 27
3 -153z m35 -144 c-3 -3 -12 -4 -19 -1 -8 3 -5 6 6 6 11 1 17 -2 13 -5z"/>
<path d="M6570 7648 c-3 -35 -4 -207 -1 -504 l1 -181 72 -29 c40 -16 76 -30
80 -32 7 -3 -1 758 -8 766 -5 7 -80 5 -103 -2 -15 -5 -26 -4 -31 4 -4 6 -8 -3
-10 -22z m97 -4 c-7 -7 -37 7 -37 17 0 6 9 5 21 -1 11 -7 19 -14 16 -16z"/>
<path d="M4855 7358 c0 -64 4 -116 10 -120 22 -17 32 -6 31 35 -1 38 1 42 25
45 25 3 27 -1 34 -44 11 -77 70 -118 108 -76 38 42 9 197 -39 216 -20 8 -54
-2 -54 -15 0 -17 -28 -9 -33 10 -4 17 -60 61 -77 61 -3 0 -5 -51 -5 -112z
m183 5 c17 -32 23 -98 13 -126 -14 -37 -39 -34 -57 8 -14 35 -19 116 -7 128
12 13 42 7 51 -10z"/>
<path d="M5107 7270 c1 -60 4 -113 7 -118 10 -17 58 -24 67 -10 14 22 10 28
-16 28 -25 0 -25 1 -25 86 0 74 2 85 17 82 24 -5 54 -102 52 -166 -2 -38 2
-56 12 -63 24 -15 26 -11 21 41 -2 28 1 63 8 80 12 29 45 49 58 35 4 -4 7 -48
7 -98 0 -73 3 -92 15 -95 13 -2 14 11 12 86 l-4 89 32 -5 32 -5 -4 -93 c-4
-89 -3 -93 20 -103 34 -16 42 -14 42 13 0 17 -5 23 -17 22 -13 -1 -19 7 -21
27 -2 15 2 27 8 27 25 0 50 -22 50 -43 0 -53 70 -119 91 -86 19 30 5 51 -17
29 -18 -18 -45 25 -51 82 -4 43 -2 56 12 68 15 13 19 12 35 -8 11 -13 21 -18
25 -12 3 5 11 10 17 10 6 0 9 -34 6 -95 -3 -95 0 -105 35 -105 8 0 7 4 -1 12
-7 7 -12 27 -12 46 0 29 3 33 23 30 19 -3 22 -9 23 -52 1 -49 2 -50 44 -68
l43 -18 -5 45 c-7 56 7 68 26 23 43 -102 41 -102 46 2 3 56 9 94 15 93 6 -2
12 -47 15 -100 4 -76 8 -98 20 -101 13 -2 15 13 12 102 -3 97 -5 104 -25 109
-12 3 -31 8 -42 12 -19 6 -20 3 -17 -36 6 -59 -17 -47 -43 22 l-20 54 -3 -85
c-3 -86 -15 -118 -32 -90 -5 8 -8 53 -7 100 1 69 -1 85 -14 88 -12 2 -14 -5
-11 -33 4 -34 2 -36 -19 -33 -21 3 -24 8 -24 47 0 42 -2 45 -32 53 -18 5 -35
13 -38 18 -14 22 -54 10 -70 -20 -16 -31 -22 -34 -49 -24 -24 9 -20 44 5 44
14 0 19 5 17 17 -3 15 -164 91 -195 93 -7 0 -13 -11 -13 -25 0 -14 -4 -25 -8
-25 -15 0 -32 24 -32 47 0 17 -8 24 -40 33 -21 6 -42 15 -45 20 -16 25 -20 2
-18 -100z"/>
<path d="M5916 7048 c-33 -47 -12 -174 33 -198 28 -14 41 -5 41 28 0 21 -2 24
-10 12 -25 -40 -71 54 -56 114 8 33 39 34 54 4 11 -23 11 -23 11 4 1 17 -7 33
-21 42 -29 21 -34 20 -52 -6z"/>
<path d="M6045 6920 c0 -97 1 -100 25 -109 14 -5 33 -12 42 -16 15 -6 16 -3 9
22 -4 15 -5 39 -1 53 7 25 7 24 22 -11 9 -20 19 -45 22 -57 14 -44 21 -20 21
75 0 63 -4 98 -11 100 -8 3 -10 -10 -7 -40 8 -64 -12 -67 -33 -5 -26 81 -29
80 -34 -15 -7 -114 -25 -114 -25 1 0 76 -6 101 -25 102 -3 0 -5 -45 -5 -100z"/>
<path d="M6214 6925 c-4 -15 0 -44 10 -68 18 -49 21 -77 6 -77 -5 0 -10 10
-10 22 0 15 -3 19 -10 12 -17 -17 6 -66 28 -62 23 4 28 69 8 110 -18 36 -20
58 -6 58 6 0 10 -7 10 -16 0 -12 6 -15 26 -10 l27 7 -5 -85 c-4 -80 0 -96 25
-96 1 0 0 36 -2 81 -3 74 -2 81 15 77 17 -3 19 -15 22 -91 2 -70 6 -87 18 -87
13 0 15 14 13 80 -1 44 1 83 5 87 3 3 6 -1 6 -10 0 -11 5 -14 16 -10 14 5 16
-4 13 -80 -4 -80 1 -97 24 -97 1 0 1 36 -1 80 -4 78 3 96 26 68 5 -7 12 -43
14 -81 7 -118 64 -133 70 -19 2 46 7 57 21 60 17 3 18 -4 16 -71 -2 -70 3 -97
19 -97 4 0 6 36 4 79 -4 76 -3 79 17 74 18 -5 21 -14 23 -85 3 -73 5 -82 26
-89 19 -7 22 -5 22 18 0 21 -2 24 -15 13 -13 -11 -15 -8 -15 19 0 31 14 42 23
19 3 -7 6 -1 6 15 1 18 -4 27 -14 27 -8 0 -15 9 -15 20 0 12 7 20 16 20 9 0
14 7 12 16 -2 10 -34 27 -82 45 -44 16 -80 29 -80 29 -1 0 1 -32 2 -71 2 -44
-1 -76 -8 -83 -19 -19 -30 14 -30 94 l0 75 -134 53 c-73 28 -139 52 -145 52
-6 0 -13 -11 -17 -25z"/>
<path d="M5595 6778 c-148 -165 -262 -446 -311 -763 -48 -320 -31 -764 42
-1059 108 -439 278 -751 489 -896 95 -66 152 -85 250 -85 82 0 97 3 155 32
164 81 291 245 383 493 212 571 170 1367 -100 1933 -54 112 -88 157 -119 157
-9 0 -2 -17 20 -47 57 -81 95 -165 85 -190 -5 -13 -10 -23 -12 -23 -2 0 -18
28 -36 63 -67 131 -173 258 -196 235 -3 -3 4 -34 15 -69 33 -103 56 -203 86
-371 l28 -158 -20 -47 -20 -48 -56 2 c-48 3 -56 0 -61 -17 -4 -16 -1 -18 22
-14 48 9 55 -5 41 -87 -18 -110 -46 -176 -96 -226 -24 -23 -49 -43 -56 -43 -7
0 -19 -4 -27 -9 -23 -15 4 -40 51 -47 21 -4 40 -9 42 -13 2 -3 -6 -26 -17 -51
-11 -25 -21 -51 -23 -59 -10 -49 -54 -36 -54 16 0 21 -7 51 -15 67 -22 41 -20
115 3 122 60 20 77 32 103 72 28 44 51 110 63 185 6 31 4 37 -11 37 -44 0 -82
-39 -123 -125 -22 -47 -43 -85 -45 -85 -3 0 -5 42 -5 94 l0 94 33 7 c42 9 54
20 79 69 18 36 48 127 48 149 0 15 -38 6 -64 -14 -15 -12 -41 -49 -59 -83
l-32 -61 -4 40 c-2 22 2 95 9 163 13 125 8 253 -12 327 -10 39 -11 39 -20 15
-17 -43 -22 -226 -9 -313 7 -45 11 -111 9 -147 l-3 -65 -36 76 c-33 69 -100
159 -119 159 -13 0 20 -123 50 -185 33 -69 44 -83 85 -112 23 -16 30 -28 29
-50 -1 -15 -3 -54 -3 -85 -1 -32 -5 -58 -10 -58 -5 0 -16 24 -26 53 -9 28 -30
77 -47 108 -31 60 -103 138 -115 125 -11 -11 33 -171 66 -242 20 -42 45 -75
84 -109 56 -48 56 -48 50 -94 -3 -25 -11 -49 -16 -53 -6 -3 -12 -26 -14 -50
-4 -48 -31 -79 -46 -53 -4 9 -5 24 -2 35 5 14 2 20 -10 20 -16 0 -32 31 -42
83 l-6 29 55 -7 c60 -8 88 8 52 28 -39 22 -102 88 -127 134 -31 58 -72 196
-81 276 -7 64 0 70 54 42 17 -9 30 -11 30 -6 0 13 -45 36 -87 45 -40 9 -49 20
-72 87 -18 53 -18 56 1 154 32 168 59 276 95 373 19 51 31 97 28 102 -21 35
-118 -14 -206 -102 l-69 -70 -10 27 c-15 40 -7 56 70 129 63 59 68 66 51 76
-37 19 -59 10 -106 -42z m88 -568 c76 -226 138 -431 156 -515 17 -77 41 -164
52 -193 25 -60 24 -63 -42 -164 -37 -56 -34 -83 17 -160 35 -51 37 -71 6 -52
-23 14 -106 138 -122 183 -7 20 -38 102 -70 182 -32 80 -61 160 -65 178 -14
67 -38 17 -71 -147 -19 -91 -16 -122 27 -422 32 -217 126 -491 203 -593 45
-60 167 -277 161 -287 -3 -6 -17 -10 -30 -10 -25 0 -55 -33 -55 -62 0 -9 -4
-19 -9 -23 -14 -8 -110 73 -164 141 -79 98 -174 250 -163 262 3 3 0 12 -6 20
-7 8 -13 20 -14 27 -1 7 -8 28 -17 46 -39 92 -84 224 -92 272 -2 15 -7 33 -11
39 -4 6 -8 23 -10 37 -1 14 -10 67 -19 116 -30 162 -35 208 -41 405 -13 382
51 752 171 991 48 95 66 122 75 112 4 -4 64 -177 133 -383z m886 -25 c138
-409 175 -837 110 -1260 -28 -182 -104 -425 -171 -545 -66 -120 -201 -270
-243 -270 -7 0 -12 14 -13 31 -1 40 -29 72 -59 66 -13 -2 -23 -2 -23 1 0 9 82
155 126 224 124 194 169 332 209 653 21 162 21 223 2 305 -9 36 -19 80 -22 98
-4 19 -10 30 -15 25 -4 -4 -26 -57 -49 -117 -57 -149 -115 -267 -144 -294 -13
-12 -42 -25 -63 -28 -31 -4 -35 -3 -17 5 12 6 35 29 50 53 39 62 37 108 -10
184 -20 34 -37 69 -37 78 0 9 11 43 24 75 14 31 34 102 45 157 18 88 50 190
111 349 10 28 39 106 64 175 68 191 66 187 76 170 4 -8 26 -69 49 -135z m-938
-652 c19 -58 12 -69 -38 -57 -23 6 -24 9 -18 53 12 80 30 81 56 4z m854 -155
c7 -37 7 -38 -23 -38 l-31 0 16 46 c17 50 28 48 38 -8z m-522 -34 c12 -33 16
-67 13 -103 -5 -61 -23 -86 -55 -76 -23 7 -71 81 -71 110 0 24 71 126 84 122
6 -2 19 -26 29 -53z m262 -55 c23 -44 34 -78 30 -90 -9 -27 -54 -79 -70 -79
-35 0 -59 81 -44 150 9 41 33 90 44 90 3 0 21 -32 40 -71z m-491 -20 c14 -33
26 -73 26 -88 0 -22 4 -27 23 -27 21 1 22 -1 19 -84 -4 -80 -2 -86 21 -108 37
-35 46 -125 17 -174 -20 -35 -20 -37 -4 -97 17 -60 18 -61 40 -46 31 20 29 20
55 -21 17 -28 21 -49 20 -98 -1 -58 0 -63 28 -84 l29 -21 14 42 c12 39 16 42
48 42 33 0 36 -2 44 -42 6 -24 13 -43 17 -43 3 0 17 9 31 19 22 18 24 26 20
73 -3 42 0 61 18 91 22 38 34 45 45 27 14 -23 32 -7 43 40 10 44 10 54 -5 77
-20 30 -20 152 0 166 7 4 17 11 24 15 8 5 9 26 3 77 -6 46 -5 74 2 82 19 23
27 14 31 -34 3 -37 4 -31 5 24 2 69 29 163 53 188 10 10 9 -31 -7 -303 -5 -92
-5 -92 20 -102 29 -10 31 -22 15 -67 -7 -23 -15 -30 -28 -26 -25 6 -28 -1 -35
-77 -3 -36 -10 -80 -15 -98 -10 -34 -68 -132 -78 -132 -3 0 -3 19 1 43 5 37 3
44 -19 60 -23 17 -25 17 -35 -4 -8 -13 -9 -42 -5 -78 l7 -58 -50 -31 c-27 -18
-54 -32 -60 -32 -9 0 -12 -33 -12 -110 0 -98 2 -110 18 -110 13 0 17 -9 19
-42 1 -24 -4 -46 -10 -50 -17 -11 -101 -10 -129 1 -21 8 -23 13 -20 71 l4 62
29 -28 29 -28 -1 130 c0 71 -3 123 -6 117 -8 -21 -27 -15 -78 23 l-48 37 6 62
c7 69 -7 103 -37 92 -26 -10 -30 -36 -13 -90 26 -81 7 -91 -37 -19 -52 85 -62
116 -75 217 -19 143 -16 137 -56 129 -32 -6 -34 -4 -44 33 -17 62 -15 71 22
75 l32 3 0 70 c0 39 -3 127 -7 198 -4 70 -4 127 1 127 5 0 20 -27 35 -61z
m316 -101 c0 -71 -3 -85 -22 -105 -18 -19 -23 -39 -26 -93 -5 -78 8 -127 42
-159 19 -18 28 -21 44 -12 63 34 62 217 -2 270 -12 10 -16 33 -16 92 0 70 2
79 19 79 15 0 19 -11 24 -72 7 -82 25 -115 76 -138 l33 -15 -4 -110 c-3 -92
-8 -119 -31 -167 -47 -103 -103 -132 -174 -89 -46 29 -90 126 -103 231 -14
110 -4 174 28 178 34 5 62 58 62 118 0 50 12 74 37 74 10 0 13 -21 13 -82z
m-112 -1004 c23 -16 31 -67 13 -79 -16 -9 -81 27 -81 46 0 17 25 49 38 49 4 0
18 -7 30 -16z m292 -1 c0 -5 3 -18 6 -30 5 -18 0 -25 -31 -37 -21 -9 -41 -16
-46 -16 -17 0 -9 50 11 70 19 19 60 28 60 13z"/>
<path d="M6758 6656 c3 -78 6 -95 20 -99 9 -3 24 -8 32 -11 12 -5 15 2 13 41
l-3 48 20 -40 c11 -22 20 -46 20 -52 0 -7 3 -13 8 -13 11 0 8 173 -3 177 -6 2
-9 -19 -8 -49 l3 -53 -23 57 c-12 31 -26 60 -30 64 -4 4 -7 -29 -7 -74 0 -110
-18 -105 -22 5 -2 47 -7 88 -13 90 -6 2 -9 -31 -7 -91z"/>
<path d="M5954 6722 c-37 -23 -100 -206 -134 -387 -12 -60 -23 -122 -26 -137
-5 -23 -1 -30 21 -38 40 -15 45 -13 43 22 -5 58 27 49 100 -28 49 -52 63 -63
59 -44 -18 65 -19 227 -3 318 19 112 21 265 4 280 -20 15 -52 22 -64 14z"/>
<path d="M6091 6568 c3 -68 12 -159 19 -204 10 -63 10 -105 2 -185 -6 -57 -9
-105 -7 -108 3 -2 22 8 43 23 22 15 52 28 68 29 27 2 29 0 32 -40 3 -42 4 -43
38 -43 29 0 34 3 30 18 -2 9 -10 51 -16 92 -22 136 -67 324 -101 415 -30 79
-38 92 -69 107 -19 9 -37 17 -40 18 -3 0 -2 -55 1 -122z"/>
<path d="M6900 6671 c-13 -26 -13 -90 1 -129 10 -30 39 -49 58 -38 5 4 11 1
13 -6 3 -8 6 -9 11 -1 3 5 0 19 -8 29 -12 16 -16 17 -24 5 -16 -24 -43 31 -39
80 3 48 23 62 37 27 l10 -23 0 26 c2 45 -39 66 -59 30z"/>
<path d="M6010 5834 c0 -17 17 -36 24 -26 3 5 -1 15 -9 22 -8 7 -15 9 -15 4z"/>
<path d="M6097 5813 c-10 -9 -9 -23 2 -23 5 0 11 7 15 15 5 15 -5 20 -17 8z"/>
<path d="M9993 8353 c9 -2 23 -2 30 0 6 3 -1 5 -18 5 -16 0 -22 -2 -12 -5z"/>
<path d="M9723 8332 c-10 -6 -9 -13 3 -30 20 -28 31 -28 29 1 -1 15 5 24 19
29 17 5 16 6 -9 7 -16 0 -36 -3 -42 -7z"/>
<path d="M8293 8323 c9 -2 23 -2 30 0 6 3 -1 5 -18 5 -16 0 -22 -2 -12 -5z"/>
<path d="M9683 8243 c9 -2 23 -2 30 0 6 3 -1 5 -18 5 -16 0 -22 -2 -12 -5z"/>
<path d="M10637 7991 c17 -5 39 -16 48 -25 22 -22 26 -20 16 7 -7 18 -17 22
-52 24 -40 2 -41 1 -12 -6z"/>
<path d="M10400 7974 c0 -3 6 -11 13 -18 10 -10 18 -9 42 6 l30 18 -42 0 c-24
0 -43 -3 -43 -6z"/>
<path d="M8953 7843 c9 -2 23 -2 30 0 6 3 -1 5 -18 5 -16 0 -22 -2 -12 -5z"/>
<path d="M8143 7783 c9 -2 23 -2 30 0 6 3 -1 5 -18 5 -16 0 -22 -2 -12 -5z"/>
<path d="M7893 7763 c9 -2 23 -2 30 0 6 3 -1 5 -18 5 -16 0 -22 -2 -12 -5z"/>
<path d="M7198 7703 c7 -3 16 -2 19 1 4 3 -2 6 -13 5 -11 0 -14 -3 -6 -6z"/>
<path d="M7555 7660 c-16 -7 -17 -9 -3 -9 9 -1 20 4 23 9 7 11 7 11 -20 0z"/>
<path d="M1270 7481 c0 -5 10 -11 23 -15 36 -9 43 -6 23 9 -22 17 -46 20 -46
6z"/>
<path d="M1368 7468 c9 -9 15 -9 24 0 9 9 7 12 -12 12 -19 0 -21 -3 -12 -12z"/>
<path d="M1548 7473 c6 -2 18 -2 25 0 6 3 1 5 -13 5 -14 0 -19 -2 -12 -5z"/>
<path d="M2507 7303 c-6 -5 10 -18 51 -39 7 -3 16 -4 19 0 8 8 -17 37 -27 31
-5 -3 -11 -1 -15 5 -7 12 -19 13 -28 3z"/>
<path d="M1778 7243 c-10 -2 -18 -8 -18 -13 0 -5 -8 -11 -17 -13 -10 -2 27 -3
82 0 104 4 141 -5 117 -29 -6 -6 -12 -15 -12 -19 0 -15 162 -31 227 -22 29 5
30 6 15 23 -8 11 -19 17 -23 14 -4 -2 -41 2 -81 11 -40 8 -83 15 -95 15 -13 0
-23 4 -23 8 0 23 -117 40 -172 25z"/>
<path d="M11414 6176 c8 -33 -2 -56 -21 -49 -13 5 -15 2 -11 -15 4 -12 2 -20
-3 -16 -5 3 -9 -2 -9 -10 0 -9 5 -16 10 -16 6 0 10 -13 10 -30 0 -16 -4 -30
-9 -30 -14 0 -10 -113 5 -128 8 -7 14 -28 14 -46 0 -61 11 -96 30 -96 10 0 21
-6 24 -12 3 -7 3 -3 0 10 -3 12 -1 22 4 22 11 0 9 301 -2 319 -4 6 -7 36 -7
66 0 49 -3 55 -21 55 -16 0 -19 -5 -14 -24z"/>
<path d="M9031 5937 c-18 -91 -23 -137 -19 -201 3 -46 8 -89 12 -94 4 -7 17
-5 36 5 17 8 37 12 45 9 13 -5 15 20 15 169 0 166 -1 175 -21 185 -18 10 -21
8 -27 -12 -6 -19 -8 -17 -12 17 -5 35 -8 26 -29 -78z"/>
<path d="M9456 5875 c31 -61 34 -64 34 -39 0 10 -14 35 -30 54 l-30 35 26 -50z"/>
<path d="M9384 5879 c-7 -12 12 -29 34 -29 6 0 12 -5 12 -12 0 -6 3 -8 6 -5 8
8 -23 57 -36 57 -5 0 -12 -5 -16 -11z"/>
<path d="M9373 5805 c0 -22 2 -30 4 -17 2 12 2 30 0 40 -3 9 -5 -1 -4 -23z"/>
<path d="M9260 5743 c0 -5 4 -14 9 -21 7 -11 9 -11 14 1 3 8 3 18 0 21 -9 8
-23 7 -23 -1z"/>
<path d="M9571 5734 c0 -11 3 -14 6 -6 3 7 2 16 -1 19 -3 4 -6 -2 -5 -13z"/>
<path d="M9568 5685 c-3 -14 -1 -25 3 -25 5 0 9 11 9 25 0 14 -2 25 -4 25 -2
0 -6 -11 -8 -25z"/>
<path d="M9915 5688 c11 -6 23 -16 27 -22 5 -7 8 -8 8 0 0 15 -22 34 -39 34
-12 -1 -11 -4 4 -12z"/>
<path d="M9730 5654 c0 -14 -2 -15 -17 -3 -15 13 -16 11 -10 -11 4 -14 7 -29
7 -35 0 -5 5 -3 11 5 8 12 10 8 6 -15 -3 -16 -2 -46 3 -65 6 -28 8 -16 9 53 1
48 -1 87 -4 87 -3 0 -5 -7 -5 -16z"/>
<path d="M8990 5620 c8 -5 22 -10 30 -10 13 0 13 1 0 10 -8 5 -22 10 -30 10
-13 0 -13 -1 0 -10z"/>
<path d="M9951 5604 c0 -11 3 -14 6 -6 3 7 2 16 -1 19 -3 4 -6 -2 -5 -13z"/>
<path d="M9381 5595 c0 -5 8 -26 17 -45 20 -41 46 -46 49 -10 1 14 0 19 -3 13
-9 -21 -21 -15 -43 20 -11 17 -21 28 -20 22z"/>
<path d="M8215 5580 c11 -5 27 -9 35 -9 9 0 8 4 -5 9 -11 5 -27 9 -35 9 -9 0
-8 -4 5 -9z"/>
<path d="M8480 5570 c8 -5 22 -10 30 -10 13 0 13 1 0 10 -8 5 -22 10 -30 10
-13 0 -13 -1 0 -10z"/>
<path d="M10103 5564 c-5 -12 44 -225 54 -234 7 -6 -6 215 -13 234 -6 16 -34
16 -41 0z"/>
<path d="M8545 5550 c11 -5 27 -9 35 -9 9 0 8 4 -5 9 -11 5 -27 9 -35 9 -9 0
-8 -4 5 -9z"/>
<path d="M8758 5483 c7 -3 16 -2 19 1 4 3 -2 6 -13 5 -11 0 -14 -3 -6 -6z"/>
<path d="M8659 6194 c-11 -13 -14 -52 -14 -158 0 -151 13 -219 47 -256 19 -20
22 -21 37 -6 13 14 16 42 16 174 0 148 -1 160 -25 207 -28 55 -41 63 -61 39z"/>
<path d="M8390 5112 c0 -78 0 -80 27 -87 35 -9 53 15 53 71 0 46 -21 78 -57
89 -22 6 -23 5 -23 -73z"/>
<path d="M8390 4892 c0 -85 4 -92 55 -92 28 0 35 17 35 79 0 57 -14 79 -57 87
l-33 7 0 -81z"/>
<path d="M8570 5011 c-12 -23 -14 -81 -2 -81 4 0 17 -3 30 -6 19 -6 22 -3 22
24 0 38 -16 82 -29 82 -6 0 -15 -9 -21 -19z"/>
<path d="M9073 4893 c-19 -67 0 -213 27 -213 14 0 30 62 29 114 -1 93 -39 160
-56 99z"/>
<path d="M8820 4951 c-25 -48 -3 -231 29 -231 30 0 42 155 17 215 -17 39 -30
44 -46 16z"/>
<path d="M9757 4770 c-12 -93 -10 -110 13 -110 22 0 22 1 1 125 l-7 40 -7 -55z"/>
<path d="M9892 4768 c2 -49 7 -64 19 -66 36 -7 33 100 -3 119 -18 10 -19 7
-16 -53z"/>
<path d="M9890 4601 c0 -59 1 -61 25 -61 25 0 26 2 23 58 -3 50 -6 57 -25 60
-22 3 -23 0 -23 -57z"/>
<path d="M9985 4680 c-7 -33 -1 -50 21 -50 15 0 19 35 8 64 -10 25 -22 19 -29
-14z"/>
<path d="M10162 4640 c2 -25 8 -45 13 -45 17 0 17 49 0 70 -14 19 -15 17 -13
-25z"/>
<path d="M3043 3666 c-121 -7 -197 -16 -204 -23 -9 -9 -12 -79 -13 -245 l-1
-233 235 3 c129 2 252 7 275 11 l40 7 6 164 c4 91 8 201 10 245 l4 80 -80 1
c-44 1 -166 -4 -272 -10z m274 -231 c2 -99 0 -185 -5 -191 -10 -16 -423 -36
-440 -21 -18 15 -13 350 5 368 13 13 224 27 363 25 l75 -1 2 -180z"/>
<path d="M2997 3093 c-4 -3 -7 -33 -7 -67 0 -76 17 -63 22 17 3 54 0 65 -15
50z"/>
<path d="M3081 3045 c1 -30 6 -55 11 -55 4 0 8 3 9 8 0 4 2 18 3 32 2 14 4 30
6 35 5 21 -1 35 -16 35 -12 0 -15 -11 -13 -55z"/>
<path d="M2997 2962 c-9 -2 -17 -8 -17 -13 0 -6 5 -7 10 -4 6 3 10 -1 10 -10
0 -12 5 -15 16 -11 9 3 21 6 27 6 7 0 23 9 37 20 l25 20 -46 -2 c-25 -2 -53
-4 -62 -6z"/>
<path d="M3082 2885 c-1 -11 -3 -86 -5 -167 -3 -136 -5 -148 -25 -165 -12 -10
-23 -29 -24 -43 -3 -21 1 -25 22 -22 13 1 28 6 33 11 4 4 6 97 4 207 -1 109
-3 190 -5 179z"/>
<path d="M4449 3737 c-5 -8 -4 -57 1 -57 4 0 12 11 18 24 9 19 8 25 -4 30 -8
3 -15 4 -15 3z"/>
<path d="M4528 3733 c7 -3 16 -2 19 1 4 3 -2 6 -13 5 -11 0 -14 -3 -6 -6z"/>
<path d="M4380 3705 c0 -14 4 -25 9 -25 5 0 9 11 9 25 0 14 -4 25 -9 25 -5 0
-9 -11 -9 -25z"/>
<path d="M3953 3638 c2 -20 9 -33 18 -33 9 0 15 12 17 33 3 27 0 32 -18 32
-18 0 -21 -5 -17 -32z"/>
<path d="M10533 3100 c-13 -5 -23 -14 -23 -20 0 -16 15 -12 35 10 20 22 20 23
-12 10z"/>
<path d="M1348 10753 c6 -2 18 -2 25 0 6 3 1 5 -13 5 -14 0 -19 -2 -12 -5z"/>
<path d="M2968 10683 c-27 -4 -27 -5 -12 -36 23 -48 52 -65 92 -55 31 8 33 11
27 41 -13 56 -25 62 -107 50z"/>
<path d="M870 10640 c17 -32 86 -62 123 -54 l31 7 -64 33 c-77 39 -106 44 -90
14z"/>
<path d="M4518 10593 c12 -2 30 -2 40 0 9 3 -1 5 -23 4 -22 0 -30 -2 -17 -4z"/>
<path d="M3388 10423 c-35 -5 -35 -15 0 -54 25 -28 31 -30 50 -20 22 12 28 35
16 65 -6 16 -14 17 -66 9z"/>
<path d="M1357 10414 c-12 -12 7 -35 47 -59 41 -24 89 -30 83 -10 -4 13 -122
76 -130 69z"/>
<path d="M3746 10172 c-2 -4 3 -18 12 -30 l17 -22 27 24 c15 12 25 26 21 30
-9 9 -71 8 -77 -2z"/>
<path d="M1814 10161 c14 -23 86 -52 103 -42 14 7 11 12 -22 25 -58 25 -89 31
-81 17z"/>
<path d="M5258 10113 c6 -2 18 -2 25 0 6 3 1 5 -13 5 -14 0 -19 -2 -12 -5z"/>
<path d="M2230 9945 c0 -5 49 -31 85 -45 36 -14 28 10 -10 32 -28 16 -75 24
-75 13z"/>
<path d="M4138 9943 c7 -3 16 -2 19 1 4 3 -2 6 -13 5 -11 0 -14 -3 -6 -6z"/>
<path d="M3700 9906 c0 -7 71 -49 75 -44 2 2 -14 14 -36 26 -21 12 -39 21 -39
18z"/>
<path d="M2666 9731 c-5 -8 35 -31 54 -31 19 0 10 17 -15 28 -31 14 -32 14
-39 3z"/>
<path d="M4438 9728 c17 -17 35 -18 50 -2 11 12 7 14 -25 14 -29 0 -34 -3 -25
-12z"/>
<path d="M4034 9711 c4 -6 22 -18 39 -27 30 -14 31 -14 12 1 -30 25 -59 39
-51 26z"/>
<path d="M4057 9669 c7 -7 15 -10 18 -7 3 3 -2 9 -12 12 -14 6 -15 5 -6 -5z"/>
<path d="M4110 9666 c0 -2 7 -7 16 -10 8 -3 12 -2 9 4 -6 10 -25 14 -25 6z"/>
<path d="M4157 9639 c7 -7 15 -10 18 -7 3 3 -2 9 -12 12 -14 6 -15 5 -6 -5z"/>
<path d="M18708 9553 c7 -3 16 -2 19 1 4 3 -2 6 -13 5 -11 0 -14 -3 -6 -6z"/>
<path d="M3058 9533 c12 -2 22 -9 22 -14 0 -6 5 -7 11 -3 15 9 -9 24 -36 22
-17 -1 -17 -1 3 -5z"/>
<path d="M4770 9535 c0 -2 10 -10 23 -16 20 -11 21 -11 8 4 -13 16 -31 23 -31
12z"/>
<path d="M4366 9515 c10 -8 23 -15 28 -15 6 0 1 7 -10 15 -10 8 -23 15 -28 15
-6 0 -1 -7 10 -15z"/>
<path d="M17317 9399 c4 -13 8 -18 11 -10 2 7 -1 18 -6 23 -8 8 -9 4 -5 -13z"/>
<path d="M3408 9353 c7 -3 16 -2 19 1 4 3 -2 6 -13 5 -11 0 -14 -3 -6 -6z"/>
<path d="M19043 9323 c9 -2 25 -2 35 0 9 3 1 5 -18 5 -19 0 -27 -2 -17 -5z"/>
<path d="M18973 9313 c9 -2 23 -2 30 0 6 3 -1 5 -18 5 -16 0 -22 -2 -12 -5z"/>
<path d="M18775 9300 c-11 -5 -14 -9 -7 -9 9 -1 11 -8 7 -20 -9 -28 11 -35 35
-11 11 11 20 23 20 28 0 4 21 10 47 13 46 6 45 6 -17 7 -36 0 -74 -3 -85 -8z"/>
<path d="M18250 9235 c6 -8 9 -19 5 -25 -3 -5 -2 -10 3 -10 10 0 22 23 22 41
0 5 -10 9 -21 9 -18 0 -19 -3 -9 -15z"/>
<path d="M19015 9232 c-2 -2 -35 -4 -74 -4 -40 0 -69 -4 -65 -9 3 -5 0 -9 -5
-9 -6 0 -11 5 -11 10 0 13 -50 13 -70 0 -11 -7 -11 -10 -2 -10 7 0 10 -5 6
-11 -3 -6 -15 -9 -25 -6 -12 3 -19 0 -19 -8 0 -38 -103 -145 -140 -145 -10 0
-28 16 -40 35 -12 19 -26 35 -32 35 -6 0 -3 11 6 24 10 15 12 27 6 31 -6 3
-10 2 -10 -4 0 -7 -8 -7 -24 -1 -27 10 -44 9 -66 -5 -8 -5 -42 -10 -75 -12
-33 -1 -71 -4 -85 -6 -14 -3 -33 -5 -42 -6 -10 0 -18 -8 -18 -16 0 -8 -4 -15
-10 -15 -5 0 -10 -5 -10 -12 0 -6 -11 -26 -25 -44 -14 -18 -25 -38 -25 -44 0
-6 -4 -8 -10 -5 -5 3 -10 2 -10 -4 0 -5 12 -8 28 -6 15 2 61 9 102 15 41 6
115 10 164 9 85 -2 90 -1 98 21 8 22 9 22 22 5 10 -14 20 -16 42 -11 16 4 56
10 89 12 33 2 87 9 119 15 33 6 98 9 144 8 74 -3 86 -1 98 16 10 14 17 16 22
9 10 -17 132 14 132 32 0 18 -21 18 -46 -1 -21 -16 -54 -20 -54 -7 0 5 -14 22
-30 39 -18 19 -27 34 -20 38 5 3 15 15 21 27 8 15 8 19 0 14 -6 -4 -11 -3 -11
3 0 9 -36 12 -45 3z"/>
<path d="M17973 9213 c9 -2 23 -2 30 0 6 3 -1 5 -18 5 -16 0 -22 -2 -12 -5z"/>
<path d="M17893 9203 c9 -2 25 -2 35 0 9 3 1 5 -18 5 -19 0 -27 -2 -17 -5z"/>
<path d="M3758 9173 c7 -3 16 -2 19 1 4 3 -2 6 -13 5 -11 0 -14 -3 -6 -6z"/>
<path d="M17875 9153 c-27 -2 -54 -8 -59 -14 -6 -5 -20 -9 -33 -9 -13 0 -23
-5 -23 -12 0 -7 -11 -22 -24 -33 -29 -25 -89 -135 -70 -128 21 8 39 -8 23 -19
-9 -6 12 -8 61 -4 41 4 119 9 173 13 93 6 97 7 97 29 0 31 17 39 32 14 7 -11
23 -20 35 -20 20 0 18 5 -22 47 -42 46 -43 49 -27 68 52 61 47 77 -23 64 -22
-4 -47 -3 -57 2 -9 5 -20 8 -25 7 -4 -1 -30 -3 -58 -5z m-2 -30 c-7 -2 -21 -2
-30 0 -10 3 -4 5 12 5 17 0 24 -2 18 -5z"/>
<path d="M17272 9060 c-12 -5 -25 -16 -28 -25 -3 -8 -10 -12 -15 -10 -5 3 -15
-11 -24 -32 -9 -20 -23 -45 -32 -55 -9 -10 -13 -18 -9 -18 4 0 -5 -10 -20 -23
l-27 -24 49 -2 c64 -2 334 28 356 40 10 5 27 9 38 9 25 0 25 3 -2 52 l-23 40
23 18 c25 21 29 35 6 26 -8 -3 -12 -2 -9 4 4 6 -21 7 -67 4 -92 -8 -136 -8
-168 -1 -14 4 -35 2 -48 -3z"/>
<path d="M16990 8999 c-30 -4 -74 -14 -97 -22 -44 -16 -130 -33 -150 -29 -22
5 -52 -17 -68 -49 -23 -43 -47 -69 -65 -69 -20 0 -53 66 -45 90 5 15 2 17 -15
13 -11 -3 -20 -9 -20 -14 0 -5 -7 -9 -15 -9 -8 0 -15 4 -15 8 0 4 -28 5 -62 2
-35 -4 -100 -5 -145 -2 l-81 4 -26 -48 c-14 -27 -39 -64 -56 -83 -16 -18 -30
-36 -30 -39 0 -6 135 3 285 18 164 17 165 18 165 45 0 31 26 33 35 4 7 -20 12
-21 79 -15 39 4 121 14 181 22 61 7 127 14 148 14 29 0 37 4 37 18 0 26 11 34
27 20 24 -19 26 0 5 36 -21 35 -21 35 -1 60 10 13 19 26 19 28 0 5 -26 4 -90
-3z"/>
<path d="M15700 8965 c0 -8 2 -15 4 -15 2 0 6 7 10 15 3 8 1 15 -4 15 -6 0
-10 -7 -10 -15z"/>
<path d="M15185 8899 c-8 -36 -3 -43 23 -35 12 4 22 18 24 36 4 26 1 30 -18
30 -17 0 -24 -8 -29 -31z"/>
<path d="M28 7103 c6 -2 18 -2 25 0 6 3 1 5 -13 5 -14 0 -19 -2 -12 -5z"/>
<path d="M28 7073 c6 -2 18 -2 25 0 6 3 1 5 -13 5 -14 0 -19 -2 -12 -5z"/>
<path d="M13145 6509 c5 -14 2 -19 -11 -19 -16 0 -16 -1 2 -15 22 -16 84 -20
84 -5 0 6 -6 10 -14 10 -8 0 -17 9 -21 19 -3 10 -15 21 -26 24 -16 4 -19 2
-14 -14z"/>
<path d="M13010 6475 c0 -5 5 -17 10 -25 5 -8 10 -10 10 -5 0 6 -5 17 -10 25
-5 8 -10 11 -10 5z"/>
<path d="M17044 6359 c-2 -4 0 -10 5 -13 11 -7 41 3 41 14 0 10 -40 9 -46 -1z"/>
<path d="M30 6170 c14 -4 34 -8 45 -8 16 0 15 2 -5 8 -14 4 -34 8 -45 8 -16 0
-15 -2 5 -8z"/>
<path d="M528 6163 c12 -2 30 -2 40 0 9 3 -1 5 -23 4 -22 0 -30 -2 -17 -4z"/>
<path d="M138 6153 c7 -3 16 -2 19 1 4 3 -2 6 -13 5 -11 0 -14 -3 -6 -6z"/>
<path d="M188 6143 c6 -2 18 -2 25 0 6 3 1 5 -13 5 -14 0 -19 -2 -12 -5z"/>
<path d="M303 6123 c9 -2 25 -2 35 0 9 3 1 5 -18 5 -19 0 -27 -2 -17 -5z"/>
<path d="M388 6113 c6 -2 18 -2 25 0 6 3 1 5 -13 5 -14 0 -19 -2 -12 -5z"/>
<path d="M438 6103 c6 -2 18 -2 25 0 6 3 1 5 -13 5 -14 0 -19 -2 -12 -5z"/>
<path d="M481 6096 c2 -2 31 -6 64 -10 40 -4 53 -3 40 3 -19 9 -113 15 -104 7z"/>
<path d="M778 6093 c6 -2 18 -2 25 0 6 3 1 5 -13 5 -14 0 -19 -2 -12 -5z"/>
<path d="M640 6070 c14 -4 36 -8 50 -8 22 0 22 1 -5 8 -16 4 -39 8 -50 8 -16
0 -15 -2 5 -8z"/>
<path d="M18925 6039 c-88 -4 -290 -14 -450 -23 -267 -15 -370 -22 -695 -46
-63 -5 -191 -9 -285 -10 -93 -1 -206 -6 -250 -10 -180 -20 -454 -35 -895 -49
-173 -6 -373 -16 -445 -22 -71 -6 -236 -12 -365 -14 -243 -3 -479 -14 -493
-22 -4 -2 -106 -4 -227 -4 l-220 0 5 -102 c3 -56 10 -172 16 -257 6 -85 12
-213 15 -285 2 -71 9 -158 15 -192 6 -35 9 -70 5 -79 -5 -13 0 -117 18 -416 3
-34 9 -157 16 -273 6 -115 15 -246 20 -290 6 -44 10 -113 10 -154 0 -80 15
-311 30 -461 14 -142 33 -440 31 -480 -1 -19 5 -134 13 -255 9 -121 20 -303
26 -405 6 -102 22 -342 35 -535 13 -192 26 -397 29 -455 21 -394 28 -521 42
-725 8 -126 18 -284 22 -350 l7 -120 2123 -3 2122 -2 0 3025 0 3025 -57 -2
c-32 0 -130 -4 -218 -9z m-1962 -2594 c32 -21 192 -18 231 4 22 12 30 13 33 4
3 -8 14 -11 27 -7 15 4 32 -2 52 -19 16 -13 72 -52 124 -87 118 -78 177 -125
184 -148 3 -10 19 -25 35 -35 40 -23 38 -57 -2 -57 -15 0 -37 5 -48 10 -15 8
-19 7 -19 -4 0 -13 -9 -14 -47 -9 -27 3 -60 12 -75 20 -24 12 -32 11 -57 -1
-24 -13 -35 -13 -80 -1 -45 12 -51 11 -51 -2 0 -13 -10 -14 -57 -9 -32 4 -75
7 -96 6 -23 0 -53 8 -75 21 -59 36 -328 228 -342 244 -7 8 -18 15 -25 15 -6 0
-20 9 -29 19 -17 18 -17 19 1 25 26 8 174 10 198 3 11 -4 31 0 45 7 33 19 46
19 73 1z m-1966 -1427 c-3 -7 -5 -2 -5 12 0 14 2 19 5 13 2 -7 2 -19 0 -25z
m649 -328 c0 -11 -4 -20 -8 -20 -10 0 -11 24 -1 33 9 9 9 10 9 -13z m-109 -62
c9 -15 10 -20 12 -48 1 -13 8 -20 21 -20 11 0 20 -6 20 -12 0 -9 4 -8 11 2 8
11 9 7 4 -17 -5 -26 -3 -33 9 -33 11 0 16 -9 16 -29 0 -20 9 -37 28 -53 25
-21 26 -24 12 -38 -9 -8 -25 -16 -35 -18 -11 -1 -31 -4 -45 -6 -14 -2 -47 -5
-75 -6 -49 -3 -49 -3 -15 -10 20 -5 -21 -6 -95 -4 -170 4 -198 11 -206 49 -9
43 -10 118 -1 131 10 16 48 34 71 34 10 0 21 5 23 10 4 14 46 21 53 9 4 -5 11
-9 16 -9 6 0 7 5 4 10 -3 6 -1 10 5 10 6 0 18 7 26 15 9 8 27 15 40 15 14 0
23 4 19 9 -3 5 3 12 12 14 35 9 62 7 70 -5z m121 -621 c28 -30 46 -125 38
-197 -4 -30 -8 -86 -9 -125 -2 -66 -3 -70 -30 -79 -22 -8 -32 -6 -55 11 -15
11 -28 30 -30 42 -2 12 -15 27 -28 33 -13 6 -27 22 -30 35 -4 12 -10 21 -15
18 -9 -6 -26 54 -27 100 -1 17 -4 54 -7 83 -6 47 -5 52 13 52 11 0 30 8 43 19
50 38 105 42 137 8z m-48 -433 c0 -2 -13 2 -30 11 -16 9 -30 18 -30 21 0 2 14
-2 30 -11 17 -9 30 -18 30 -21z m364 -70 c19 -7 22 -54 3 -54 -13 0 -87 47
-87 55 0 7 66 6 84 -1z m-89 -72 c-3 -3 -11 0 -18 7 -9 10 -8 11 6 5 10 -3 15
-9 12 -12z m90 -50 c-3 -3 -11 0 -18 7 -9 10 -8 11 6 5 10 -3 15 -9 12 -12z"/>
<path d="M515 5930 c-13 -6 3 -7 45 -3 36 3 67 7 69 9 9 8 -95 2 -114 -6z"/>
<path d="M378 5383 c6 -2 18 -2 25 0 6 3 1 5 -13 5 -14 0 -19 -2 -12 -5z"/>
<path d="M458 5373 c7 -3 16 -2 19 1 4 3 -2 6 -13 5 -11 0 -14 -3 -6 -6z"/>
<path d="M1038 5293 c6 -2 18 -2 25 0 6 3 1 5 -13 5 -14 0 -19 -2 -12 -5z"/>
<path d="M1218 5273 c6 -2 18 -2 25 0 6 3 1 5 -13 5 -14 0 -19 -2 -12 -5z"/>
<path d="M1268 1683 c6 -2 18 -2 25 0 6 3 1 5 -13 5 -14 0 -19 -2 -12 -5z"/>
<path d="M1218 1673 c6 -2 18 -2 25 0 6 3 1 5 -13 5 -14 0 -19 -2 -12 -5z"/>
<path d="M0 1543 c0 -50 3 -63 15 -63 20 0 20 66 0 100 -14 24 -14 22 -15 -37z"/>
<path d="M13283 1225 c0 -38 2 -53 4 -32 2 20 2 52 0 70 -2 17 -4 1 -4 -38z"/>
<path d="M13294 970 c0 -52 1 -74 3 -47 2 26 2 68 0 95 -2 26 -3 4 -3 -48z"/>
<path d="M4200 619 c-19 -10 -107 -41 -195 -68 -88 -28 -168 -56 -177 -61 -10
-6 -24 -10 -32 -10 -8 0 -67 -18 -132 -39 -66 -21 -175 -56 -244 -76 -69 -20
-159 -48 -200 -61 -41 -13 -78 -24 -83 -24 -4 0 -7 21 -7 48 -1 69 -16 125
-41 145 -22 18 -78 23 -94 8 -6 -5 -39 -18 -75 -30 -36 -12 -74 -26 -85 -31
-11 -4 -54 -19 -95 -33 -295 -97 -355 -132 -428 -245 -27 -43 -57 -92 -66
-109 l-17 -33 430 0 430 0 7 35 c3 19 11 38 16 41 5 4 64 23 131 44 67 20 130
41 140 45 15 6 17 -1 17 -79 l0 -86 170 0 c129 0 170 3 170 13 6 177 12 314
15 323 2 6 16 14 32 17 47 9 195 56 238 75 22 10 60 24 85 31 140 41 139 40
149 77 11 41 3 105 -13 103 -6 -1 -27 -10 -46 -20z m-1160 -249 c0 -48 21 -37
-454 -225 -148 -58 -271 -104 -273 -101 -20 20 71 142 129 172 27 14 493 188
548 204 30 9 50 -11 50 -50z"/>
</g>
</svg>
